<?xml version="1.0" encoding="UTF-8"?>
<svg id="Layer_2" data-name="Layer 2" xmlns="http://www.w3.org/2000/svg" xmlns:xlink="http://www.w3.org/1999/xlink" viewBox="0 0 263.03 277.32">
  <defs>
    <style>
      .cls-1 {
        stroke: #bba07c;
      }

      .cls-1, .cls-2, .cls-3 {
        stroke-miterlimit: 10;
        stroke-width: .25px;
      }

      .cls-1, .cls-3 {
        fill: none;
      }

      .cls-4, .cls-2 {
        fill: #98866b;
      }

      .cls-5 {
        fill: #718584;
      }

      .cls-6 {
        fill: #6d563b;
      }

      .cls-7 {
        fill: #ffd56c;
      }

      .cls-2, .cls-3 {
        stroke: #98866b;
      }

      .cls-8 {
        fill: #90a6a5;
      }

      .cls-9 {
        fill: #a18e76;
      }

      .cls-10 {
        clip-path: url(#clippath-1);
      }

      .cls-11 {
        clip-path: url(#clippath-2);
      }

      .cls-12 {
        fill: #9d835e;
      }

      .cls-13 {
        fill: #e4cfba;
      }

      .cls-14 {
        fill: #ffaaf5;
      }

      .cls-15 {
        fill: #f4f7f3;
      }

      .cls-16 {
        fill: #f1ddc8;
      }

      .cls-17 {
        clip-path: url(#clippath);
      }
    </style>
    <clipPath id="clippath">
      <path class="cls-2" d="M149.79,90.31c-.16,1.4.46,2.33,1.84,2.76.39.12.82.07,1.21-.11l.17-.09c7.54-3.63,12.26-5.92,15.17-7.32s4.01-1.93,4.29-2.08c.24-.12.67-.18,1.23-.19,2.57-.02,8.04,1.05,12.19,1.94-1.62-.9-2.98-1.69-4.15-2.37-3.71-2.18-5.57-3.28-8.07-3.2-1.95.04-13.54,5.02-22.87,9.28-.55.24-.94.78-1,1.38Z"/>
    </clipPath>
    <clipPath id="clippath-1">
      <path class="cls-2" d="M118.88,89.42c.17,1.4-.45,2.33-1.82,2.77-.39.12-.82.08-1.21-.1l-.17-.09c-7.56-3.58-12.3-5.84-15.22-7.23s-4.02-1.91-4.3-2.05c-.24-.12-.67-.18-1.23-.18-2.57,0-8.03,1.1-12.18,2.02,1.61-.91,2.97-1.71,4.14-2.4,3.7-2.2,5.55-3.31,8.05-3.25,1.95.03,13.57,4.94,22.93,9.14.55.24.94.77,1.01,1.37Z"/>
    </clipPath>
    <clipPath id="clippath-2">
      <path class="cls-12" d="M76.88,268.41c-.5.08-4.9.4-12.8-8.12-1.2-.67-14.03-8.11-14.57-23.15-2.29,1.65-7.96,5.37-11.24,4.24-.73-.08-6.59-.82-9.52-5.22-3.38-5.07-7.37-14.5,2.23-22.42-3.36,1.18-8.15,2.57-11.75,2.45-10.84-.36-16.17-8.6-16.59-9.28-.34-.39-2.83-3.48-2.63-8.88.04-1.11.35-2.23.91-3.23,1.51-2.71,5.85-8.78,13.47-6.54.14.03,1.67.39,1.93,1.52.19.8-.3,1.65-1.48,2.59l-.11.07c-.06.02-5.57,2.46-6.77,5.73-.15.64-.42,2.97,2.82,4.67.11.06,11.71,6.03,18.95-1.39.08-.08,6.85-6.53,7.59-12.46.03-.24-.04-.47-.19-.65-.14-.16-.34-.26-.57-.26-2.51-.08-8.8-1.09-12.84-8.74-.09-.21-5.95-15.89,5.79-24.76.16-.17,5.19-5.1,12.17-4.81,1.09.06,2.17-.24,3.03-.82.91-.62,1.4-1.4,1.45-2.33.05-.8-.31-1.5-.62-1.94-1.18-1.71-4.78-6.34-12.69-12.47-.57-.44-1-.94-1.28-1.49-.79-1.51-1.74-4.98.73-11.22.2-.51.44-.98.71-1.5.71-1.37,1.55-3.96-.8-5.96-.38-.33-.65-.63-.85-.96-1.02-1.69-4.01-7.77.24-15.08.07-.17,2.49-5.69,11.74-16.37.34-.4.5-.92.42-1.43-.44-2.87-.83-10.36,4.95-17.7.49-.62.9-1.16,1.26-1.73,2.32-3.6,10.27-15.78,15.18-21.01,1.16-1.24,2.13-2.4,2.96-3.55,4.16-5.75,14.57-19.51,21.22-22.95.34-.17,1.26-.72,1.6-.95,3.12-2.04,14.34-8.77,27.7-9.53.35-.02.69-.05,1.04-.1,1.46-.23,6.71-.79,12.48,1.38.19.07.38.07.55.01,5.09-1.82,50.61-15.59,81.82,62.21.59,1.25,14.64,31.27,10.85,39.17-.06.18-1.9,5.12,4.16,9.09l.14.12c.53.7,13.09,17.25,5.02,34.61-.01.02-2.29,6.57,1.96,10.27.57.5,1.08,1.11,1.61,1.93,1.8,2.8,5.7,10.09,3.08,17.28-.84,3.31-1.8,10.07.65,11.6.3.12,9.27,3.9,11.1,17.43.02.17.04.35.05.53.07,1.18.62,7.17,4.65,9.24.24.12,6.06,3.15,5.14,13.18-.21,1.42-5.24,34.19-18.57,38.07-.08.04-3.4,1.44-5.45.16-.94-.59-1.46-1.61-1.53-3.04l-1.25-4.85c-.04-.17-.19-.2-.24-.2-.06,0-.17,0-.23.13-.3.65-.67,2.08-.68,5.2,0,.17-.01.33-.04.49-.34,1.98-1.38,6.52-3.77,6.52-.02,0-.04,0-.06,0-.66.1-4.24.11-9.66-9.18-.26-.45-.65-.79-1.1-.95-1.29-.47-3.26-.55-5.24,1.7-.53.86-5.46,8.72-11.16,12.57-.47.31-1,.57-1.64.76-1.47.46-4.42,1.22-7.75,1.22-4.67,0-10.1-1.48-13.36-7.34-.03-.06-1.85-4.31-.27-14.17-2.6,2.38-7.74,6.43-11.21,4.79-.04-.01-10.05-3.31-9.47-11.67.05-.51,1.42-12.11,10.47-15.53.04-.02,6.17-2.67,7.6-6.79.01-.17.18-2.41-1.5-4.2-.68-.73-1.72-1.08-2.77-.94-5.28.68-14.4,1.4-16.4-1.42-.46-.46-3.9-4.38.41-13.01l.08-.14c1.73-3,10.77-18.51,19.4-28.87v-.02c.84-1.06,13.51-17.48,14.16-31.25l-1.45-25.46c-.01-.12-1.45-13.93.63-27.8-.03-.9-.63-13.98-5.29-19.97-.13-.22-8.27-15.08-23.8-27.09-.14-.14-9.85-9.6-21.68-16.06-.84-.46-1.78-.73-2.8-.82-5.95-.5-9.39-1.23-10.21-2.15-.01,0-2.5-2.05-5.77-2.05-1,0-2.07.19-3.17.69l-.11.04c-.74.16-18.38,4.18-28.82,18.77-.1.13-9.2,11.83-11.25,20.89-.06.15-3.38,9.26-4.42,22.51-.03.15-1.7,8.01-2.53,20.65-.02.24-1.74,23.77,2.36,32.35.32.68.56,1.39.75,1.99,2.01,6.41,9.53,28.39,21.62,41.74.05.05,6.18,8.13,6.06,18.78-.01.84.05,1.76.21,2.88.76,5.68,2.4,19.7,1.22,27.22-.05.32-6.73,31.15-26.37,34.54Z"/>
    </clipPath>
  </defs>
  <g id="neck">
    <g>
      <path class="cls-13" d="M174.02,181.41l-10.21,15.96c-.27.42-.58.81-.9,1.22-.33.42-.66.85-.96,1.31-4.04,6.32-5.82,11.43-5.44,15.62.13,1.35.82,2.53,1.9,3.25,2,1.32,4.72,1.57,5.87,1.61-1.13,2.7-14.01,15.94-26.17,27.6-5.86,5.75-13.6,1.36-13.95,1.16-7.17-3.69-16.48-15.03-19.16-18.42-.3-.37-.46-.82-.48-1.3l-.34-8.64c-1.62-20.59-4.22-30.04-5.98-34.26,6.24,5.95,22.64,20.4,34.98,20.8.62.11,14.76,2.31,40.84-25.91Z"/>
      <path class="cls-13" d="M138.11,247.98c12.16-11.66,25.04-24.9,26.17-27.6-1.15-.04-3.87-.29-5.87-1.61-1.08-.72-1.77-1.9-1.9-3.25-.38-4.19,1.4-9.3,5.44-15.62.3-.46.63-.89.96-1.31.32-.41.63-.8.9-1.22l10.21-15.96c-26.08,28.22-40.22,26.02-40.84,25.91-12.34-.4-28.74-14.85-34.98-20.8,1.76,4.22,4.36,13.67,5.98,34.26l.34,8.64c.02.48.18.93.48,1.3,2.68,3.39,11.99,14.73,19.16,18.42.35.2,8.09,4.59,13.95-1.16ZM162.79,200.44c-3.91,6.12-5.64,11.02-5.28,14.99.09,1.03.64,1.97,1.45,2.5,2.13,1.41,5.35,1.46,5.76,1.46.27.01.5.15.59.4.83,2.34-18.26,21-26.5,28.91-2.49,2.44-5.32,3.19-7.85,3.19-3.98,0-7.23-1.85-7.28-1.88-7.33-3.77-16.75-15.24-19.47-18.67-.43-.54-.67-1.19-.69-1.88l-.34-8.62c-2.37-30.13-6.89-36.11-7.43-36.72-.03-.04-.06-.07-.08-.08l.68-.74.13.13c1.58,1.6,22.41,22.42,36.81,22.9.22.03,15.45,2.28,43-28.93.22-.25.59-.28.86-.09.26.2.32.56.14.84l-12.64,19.76c-.29.46-.63.89-.95,1.3-.33.42-.64.81-.91,1.23Z"/>
    </g>
  </g>
  <g id="head">
    <g>
      <path class="cls-16" d="M191.4,119.28l1.44,25.52c-.67,14.41-14.24,31.75-14.38,31.93h-.01c-24.6,28.33-39.58,30.62-43.78,30.62-.7,0-1.1-.06-1.2-.08-15.22-.5-37.35-22.58-38.29-23.52-12.25-13.52-19.82-35.67-21.85-42.14-.18-.56-.4-1.22-.7-1.85-4.21-8.82-2.52-31.87-2.45-32.85.83-12.58,2.47-20.39,2.54-20.72,1.05-13.5,4.42-22.59,4.45-22.67,2.09-9.2,11.03-20.71,11.41-21.19,10.26-14.34,27.83-18.79,29.35-19.14,5.27-2.38,9.82,1.41,10.02,1.57.52.58,3.27,1.34,9.59,1.87,1.15.1,2.23.42,3.2.94,11.82,6.45,21.44,15.78,21.85,16.18,15.66,12.11,23.9,27.15,23.98,27.3,5,6.42,5.46,20.39,5.46,20.53-2.08,13.85-.65,27.57-.63,27.7ZM191.84,144.8l-1.44-25.43c-.01-.12-1.45-13.96.64-27.85-.01-.04-.5-13.74-5.31-19.92-.12-.22-8.26-15.08-23.79-27.1-.45-.43-9.98-9.67-21.68-16.05-.84-.46-1.79-.73-2.81-.82-5.95-.5-9.38-1.23-10.2-2.15,0,0-.63-.52-1.66-1.03-1.04-.51-2.48-1.03-4.11-1.03-1,0-2.08.2-3.18.7l-.1.04c-.18.04-18.33,4.11-28.82,18.76-.1.14-9.2,11.84-11.26,20.9-.05.15-3.37,9.26-4.41,22.51-.08.39-1.71,8.13-2.53,20.65-.02.24-1.75,23.76,2.36,32.35.32.68.56,1.39.74,1.98,2.02,6.42,9.53,28.4,21.63,41.75.21.21,22.76,22.73,37.67,23.22.23.04,15.85,2.34,44.1-30.19.36-.45,13.51-17.32,14.16-31.29Z"/>
      <path class="cls-16" d="M190.4,119.37l1.44,25.43c-.65,13.97-13.8,30.84-14.16,31.29-28.25,32.53-43.87,30.23-44.1,30.19-14.91-.49-37.46-23.01-37.67-23.22-12.1-13.35-19.61-35.33-21.63-41.75-.18-.59-.42-1.3-.74-1.98-4.11-8.59-2.38-32.11-2.36-32.35.82-12.52,2.45-20.26,2.53-20.65,1.04-13.25,4.36-22.36,4.41-22.51,2.06-9.06,11.16-20.76,11.26-20.9,10.49-14.65,28.64-18.72,28.82-18.76l.1-.04c1.1-.5,2.18-.7,3.18-.7,1.63,0,3.07.52,4.11,1.03,1.03.51,1.66,1.03,1.66,1.03.82.92,4.25,1.65,10.2,2.15,1.02.09,1.97.36,2.81.82,11.7,6.38,21.23,15.62,21.68,16.05,15.53,12.02,23.67,26.88,23.79,27.1,4.81,6.18,5.3,19.88,5.31,19.92-2.09,13.89-.65,27.73-.64,27.85Z"/>
    </g>
  </g>
  <g id="R_eye" data-name="R eye">
    <path d="M181.06,107.23c-1.05,0-1.8-.09-1.9-.1l.09-.68c-.25,0-.51,0-.77,0l.02-1c7.58.18,9.34-2.56,9.36-2.59l1.82-2.92-.91,3.31c-.95,3.45-5.19,3.99-7.71,3.99Z"/>
    <g>
      <g>
        <path d="M179.97,106.68l-.44.35c-.08.06-5.52,4.29-13.18,4.29-3.44,0-7.35-.86-11.41-3.34,0,0-1.56-.76-2.96-.76h-.05c-.36.02-.61-.19-.72-.49-.1-.3,0-.62.25-.81,1.66-1.24,7.7-5.36,14.89-5.36,4.23,0,8.86,1.43,13.22,5.72l.4.4ZM155.43,107.11c11.04,6.74,20.79.98,23.01-.53-3.22-2.96-12.75-9.64-25.76-.31,1.4.17,2.68.81,2.75.84Z"/>
        <path class="cls-15" d="M178.44,106.58c-2.22,1.51-11.97,7.27-23.01.53-.07-.03-1.35-.67-2.75-.84,13.01-9.33,22.54-2.65,25.76.31Z"/>
      </g>
      <path d="M178.04,105.8c-.18,0-.29,0-.32,0l.04-.92c-.39.01-.8.02-1.21.01l.02-1c6.58.14,10.1-3.16,10.13-3.2l1.73-1.68-.92,2.23c-1.77,4.3-7.96,4.57-9.47,4.57ZM183.98,103.52c-1.15.49-2.59.95-4.33,1.19,1.25-.13,2.9-.45,4.33-1.19Z"/>
      <path d="M175.49,104.15l-.02-.49c-.26.01-.57.03-.8.02v-1h0c6.28,0,10.49-3.33,10.53-3.37l1.42-1.15-.64,1.71c-1.42,3.78-10.12,4.25-10.49,4.27Z"/>
      <path d="M173.45,103.03l-.09-.72c-.43.07-.87.13-1.33.16l-.08-1c5.84-.46,9.57-4.54,9.6-4.59l1.24-1.38-.38,1.81c-.95,4.61-8.64,5.66-8.97,5.71Z"/>
      <path d="M169.71,101.85v-.29c-.51.09-1.04.15-1.58.18l-.05-1c6.04-.31,9.55-5.22,9.58-5.27l1.46-2.07-.56,2.47c-1.28,5.64-8.09,6.4-8.85,5.98Z"/>
    </g>
    <g id="R_eyeball" data-name="R eyeball">
      <g>
        <g>
          <path d="M168.61,102.6c.79,1.36.18,2.21-.59,2.73-1.02.67-2.39.68-3.41-.01-1.93-1.3.2-3.63.2-3.63,1.51-.12,1.16,0,2.64-.23.54-.08.88.67,1.16,1.14Z"/>
          <path class="cls-8" d="M170.13,101.91c-1.05-.14-2.06-.37-3.03-.7-.02,0-.03,0-.05,0-.56.06-1.11.1-1.68.1-.17,0-.34-.02-.51-.03-.77.24-1.56.41-2.36.53-.24.09-.4.17-.4.21-2.86,7.31,3.98,7.35,3.98,7.35,7.88,0,4.79-6.99,4.79-6.99-.24-.18-.49-.33-.75-.46ZM168.02,105.33c-1.02.67-2.39.68-3.41-.01-1.93-1.3.2-3.63.2-3.63,1.51-.12,1.16,0,2.64-.23.54-.08.88.67,1.16,1.14.79,1.36.18,2.21-.59,2.73Z"/>
        </g>
        <g>
          <path class="cls-5" d="M171.14,102.31l-.64-.21c-1.17-.62-2.12-.29-3.39-.88-.03,0-.05,0-.08,0,0,0-1.1.09-1.66.09-.18,0-.35-.02-.53-.03-.93.28-1.88.49-2.85.6-.24.03-.45.19-.53.42-.8,2.27-.75,4.1.16,5.44,1.41,2.08,4.33,2.12,4.46,2.12,2.54,0,4.3-.71,5.21-2.1,1.48-2.27.18-5.25.08-5.38l-.24-.07ZM170.45,107.22c-.71,1.09-2.18,1.65-4.36,1.65-.03,0-2.52-.04-3.63-1.69-.75-1.11-.73-2.74.06-4.84.81-.36,5.34-1.49,7.95.36.21.55,1.03,2.92-.01,4.52Z"/>
          <path d="M168.96,102.12c-.09-.16-.2-.34-.33-.52-.36-.08-.72-.17-1.07-.28-.43-.14-.51-.23-1.14-.1-.33.07-.68.06-1.02.06-.04,0-.09,0-.13,0-.54-.03-.6.07-.93.2-.47.19-1.14,1.52-1,2.67.08.63.43,1.17,1.01,1.56.59.4,1.29.6,1.99.6s1.39-.2,1.99-.59c1.26-.85,1.52-2.06.74-3.4l-.11-.19ZM167.74,104.91c-.87.57-2.01.56-2.86,0-.35-.24-.54-.51-.58-.85-.08-.67.43-1.49.75-1.88.43-.03.68-.04.89-.05.41-.01.63-.02,1.58-.17.14-.02.44.52.54.7l.11.2c.51.88.38,1.52-.43,2.06Z"/>
        </g>
      </g>
    </g>
  </g>
  <g id="L_eye" data-name="L eye">
    <g>
      <path d="M118.41,106.31c.27.22.36.58.23.91s-.46.53-.79.52c-1.37-.04-2.87.57-2.89.58-3.63,1.88-7.06,2.57-10.13,2.57-7.7.01-13.19-4.32-14.14-5.12h.21l-.04-.69c.25.02.51.04.77.05l.03-.66c.43.05.71.06.77.06l.03-.92c.39.04.79.07,1.21.09l.04-.82c.6.11.99.16,1.06.17l.06-.49c.27.03.53.06.8.08l.06-.86c.67.19,1.12.28,1.19.3l.14-.71c.38.09,1.23-.55,1.42-.71,1.22.38,2.15.49,2.25.5l.03-.29c.31.07.63.14.96.19-3.21.25-6.62,1.44-10.02,4.21,2.1,1.65,11.43,8.09,22.88,2.14.1-.04,1.43-.58,2.83-.66-2.56-2.09-8.6-6.2-15.67-5.69t-.02,0c-.8-.15-1.54-.4-2.22-.71,8.73-1.77,16.33,3.74,18.95,5.96Z"/>
      <path class="cls-15" d="M101.7,101.06c7.07-.51,13.11,3.6,15.67,5.69-1.4.08-2.73.62-2.83.66-11.45,5.95-20.78-.49-22.88-2.14,3.4-2.77,6.81-3.96,10.02-4.21t.02,0Z"/>
      <path d="M101.68,101.06c-.33-.05-.65-.12-.96-.19l-.03.29c-.1-.01-1.03-.12-2.25-.5.03-.02.04-.03.04-.03-.05-.01-.09-.01-.14-.02.38-.1.75-.19,1.12-.26.68.31,1.42.56,2.22.71Z"/>
      <path d="M98.34,100.61c.05,0,.09,0,.14.02,0,0-.01,0-.04.03-.04-.01-.09-.02-.14-.04.02,0,.03,0,.04,0Z"/>
      <path d="M98.3,100.62s.1.03.14.04c-.19.16-1.04.8-1.42.71l-.14.71c-.07-.02-.52-.11-1.19-.3v-.14s-.08,0-.12,0c.92-.43,1.83-.76,2.73-1.01Z"/>
      <path d="M99.46,100.35c-.37.07-.74.16-1.12.26-.07-.01-.13-.02-.2-.04h-.01c-2.27-.75-5.3-2.41-5.85-5.99l-.38-2.51,1.3,2.17s2.13,4.26,6.26,6.11Z"/>
      <path d="M98.34,100.61s-.02,0-.04,0c-.05,0-.11-.03-.16-.05.07.02.13.03.2.04Z"/>
      <path d="M98.14,100.57s.11.04.16.05c-.9.25-1.81.58-2.73,1.01-.18-.01-.35-.03-.52-.06-2.38-.77-6.28-2.52-6.72-5.81l-.25-1.83,1.14,1.46s3.32,4.21,8.91,5.18h.01Z"/>
      <path d="M95.7,101.64v.14c-.09-.03-.19-.06-.28-.09.05-.02.1-.05.15-.06.04,0,.09,0,.13,0Z"/>
      <path d="M95.69,101.78l-.06.86c-.27-.02-.53-.05-.8-.08l-.06.49c-.07-.01-.46-.06-1.06-.17v-.18s-.09-.01-.14-.01c.62-.38,1.24-.71,1.85-1,.09.03.19.06.27.09Z"/>
      <path d="M95.57,101.63c-.05,0-.1.04-.15.06-.12-.03-.24-.07-.37-.12.17.03.34.05.52.06Z"/>
      <path d="M95.05,101.57c.13.05.25.09.37.12-.61.29-1.23.62-1.85,1-.6-.03-1.17-.09-1.71-.18-2.74-.66-6.52-1.98-7.25-4.45l-.53-1.76,1.34,1.25s3.74,3.4,9.63,4.02Z"/>
      <path d="M93.72,102.7v.18c-.12-.02-.24-.04-.37-.06.08-.05.15-.09.22-.13.05,0,.1.01.15.01Z"/>
      <path d="M93.71,102.88l-.04.82c-.42-.02-.82-.05-1.21-.09l-.03.92c-.06,0-.34-.01-.77-.06l.02-.34c-.06,0-.12-.01-.18-.01.62-.49,1.24-.92,1.85-1.3.13.02.25.04.36.06Z"/>
      <path d="M93.57,102.69c-.07.04-.14.08-.22.13-.43-.08-.94-.18-1.49-.31.54.09,1.11.15,1.71.18Z"/>
      <path d="M93.35,102.82c-.61.38-1.23.81-1.85,1.3-1.34-.07-2.48-.22-3.46-.42-.01,0-.02,0-.03-.01-2.05-.7-4.22-2-5.03-4.39l-.76-2.29,1.61,1.8s2.66,2.91,8.03,3.7c.55.13,1.06.23,1.49.31ZM86.35,101.83c1.37.83,3,1.26,4.23,1.48-1.71-.36-3.11-.91-4.23-1.48Z"/>
      <path d="M91.68,104.13l-.02.34c-.16-.01-.33-.03-.53-.06.12-.1.25-.2.37-.29.06,0,.12.01.18.01Z"/>
      <path d="M91.66,104.47l-.03.66c-.26-.01-.52-.03-.77-.05l.04.69h-.21c-.09-.08-.14-.12-.15-.13l-.42-.39.43-.36c.19-.17.39-.33.58-.48.2.03.37.05.53.06Z"/>
      <path d="M91.5,104.12c-.12.09-.25.19-.37.29-.82-.11-1.93-.31-3.09-.71.98.2,2.12.35,3.46.42Z"/>
      <path d="M91.13,104.41c-.19.15-.39.31-.58.48l-.43.36.42.39s.06.05.15.13c-.11.01-.27.01-.46.01-2,0-7.8-.36-8.64-4.55l-.75-3.7,1.68,3.37s1.06,1.9,5.49,2.79c.01.01.02.01.03.01,1.16.4,2.27.6,3.09.71Z"/>
    </g>
    <g id="L_eyeball" data-name="L eyeball">
      <g>
        <path class="cls-8" d="M106.28,101.08s-.02-.03-.03-.05c.24.05.48.09.72.12.38.21.77.4,1.17.57.02.02.05.03.07.04-.64-.23-1.45-.52-1.93-.68Z"/>
        <path d="M106.25,101.03s.02.03.03.05c-.1-.03-.18-.06-.24-.08.07.01.14.03.21.03Z"/>
        <path d="M106.25,101.03c-.07,0-.14-.02-.21-.03.02-.1.03-.19,0-.26.08.09.15.19.21.29Z"/>
        <path d="M106.51,101.48c-.16-.06-.33-.1-.5-.14.01-.11.03-.23.03-.34.06.02.14.05.24.08.07.11.13.22.19.32l.04.08Z"/>
        <path d="M106.07,102.07c-.14-.26-.31-.59-.52-.83.15.03.31.06.46.1,0,.11.01.22.06.32.32.54.41.99.36,1.38-.04-.29-.15-.61-.36-.97Z"/>
        <path d="M105.54,101.24c-.07-.09-.16-.17-.25-.23.1,0,.2-.01.3-.02.11,0,.21-.01.32-.02.03,0,.07.02.13.03,0,.11-.02.23-.03.34-.15-.04-.31-.07-.46-.1h-.01Z"/>
        <path d="M105.59,100.99c-.1.01-.2.02-.3.02-.01,0-.01-.01-.02-.01.11,0,.22,0,.32-.01Z"/>
        <path d="M104.96,101.16s.05-.01.07-.01.05.01.08.03c-.05,0-.1-.01-.15-.02Z"/>
        <path d="M104.4,101.01c-.05.01-.1.01-.14.02h-.02c-.7-.01-1.67-.02-2.51-.01.03-.07.06-.13.09-.18.1-.02.2-.04.29-.06.74.13,1.51.21,2.29.23Z"/>
        <path d="M104.88,100.75c-.86,0-2.6-.17-2.9-.18.08-.13.13-.2.13-.2,1.36.2,2.58.24,2.72.24.15,0,.94-.05,1.08-.05.08.04.12.1.13.18,0-.01-.01-.02-.02-.03-.02,0-.04,0-.06,0-.36.02-.72.05-1.08.05Z"/>
        <path d="M104.94,101.16c-.88.14-1.1.15-1.5.16-.2.01-.45.01-.87.04-.03-.06-.06-.11-.09-.14.76-.09,1.61-.13,2.46-.06Z"/>
        <path d="M105.26,104.1c-.87.57-2.02.57-2.86,0-.35-.23-.53-.51-.57-.85-.06-.47.13-1.65.39-1.99h.01c.08-.02.17-.03.25-.04.03.03.06.08.09.14.42-.03.67-.03.87-.04.4-.01.62-.02,1.5-.16h.02s.1.02.15.02c.11.07.27.3.48.71l.1.16c.52.88.38,1.51-.43,2.05Z"/>
        <path d="M102.23,101.25c.08-.1.16-.13.25-.03-.08,0-.17.02-.25.03Z"/>
        <path d="M102.28,101.15c1.21-.08,1.22-.03,1.96-.12h.59c.15,0,.31-.01.46-.02.09.06.18.14.25.23-.15-.02-.29-.04-.43-.06-.03-.02-.06-.03-.08-.03s-.05.01-.07.01h-.02c-.85-.07-1.7-.03-2.46.06-.09-.1-.17-.07-.25.03h-.01s-.02.01-.03.01c.05-.07.09-.11.09-.11Z"/>
        <path d="M104.4,101.01c-.78-.02-1.55-.1-2.29-.23-.09.02-.19.04-.29.06.06-.11.11-.2.16-.27.3.01,2.04.18,2.9.18.36,0,.72-.03,1.08-.05.02,0,.04,0,.06,0,.01.01.02.02.02.03.03.07.02.16,0,.26-.06-.01-.1-.02-.13-.03-.11,0-.21.02-.32.02-.1.01-.21.01-.32.01.01,0,.01.01.02.01-.15.01-.31.02-.46.02h-.57s.09-.01.14-.02Z"/>
        <path d="M101.69,100.87c.12-.16.21-.26.25-.3h.04c-.05.07-.1.16-.16.27-.04.01-.08.02-.13.03Z"/>
        <path d="M101.69,100.87c.05,0,.09-.02.13-.03-.03.05-.06.11-.09.18h-.14c.04-.06.07-.11.1-.15Z"/>
        <path d="M101.28,103.23c.06-.86.67-1.68.91-1.97.01,0,.02-.01.03,0-.26.34-.45,1.52-.39,1.99.04.34.22.62.57.85.84.57,1.99.57,2.86,0,.81-.54.95-1.17.43-2.05l-.1-.16c-.21-.41-.37-.64-.48-.71.14.02.28.04.43.06h.01c.21.24.38.57.52.83.21.36.32.68.36.97-.06.56-.43.97-.85,1.28-.91.64-2.12.74-3.13.27-.73-.34-1.06-.83-1.17-1.35h0Z"/>
        <path d="M101.57,101.36c.05-.13.1-.24.16-.34.84-.01,1.81,0,2.51.01-.74.09-.75.04-1.96.12,0,0-.04.04-.09.11-.22.03-.43.07-.62.1Z"/>
        <path class="cls-8" d="M101.69,100.87s-.06.09-.1.15c-.37.01-.74.03-1.1.09.18-.04.37-.09.59-.14.2-.03.41-.06.61-.1Z"/>
        <path d="M101.73,101.02c-.06.1-.11.21-.16.34-.09.02-.17.04-.24.05.09-.15.18-.28.26-.39h.14Z"/>
        <path d="M101.28,103.24c.11.52.44,1.01,1.17,1.35,1.01.47,2.22.37,3.13-.27.42-.31.79-.72.85-1.28.11.82-.37,1.38-.94,1.75-1.03.68-2.4.69-3.42,0-.65-.44-.84-1-.79-1.55Z"/>
        <path d="M102.19,101.26c-.24.29-.85,1.11-.91,1.97-.14-.64.05-1.33.29-1.87.19-.03.4-.07.62-.1Z"/>
        <path d="M101.28,103.24c-.05.55.14,1.11.79,1.55,1.02.69,2.39.68,3.42,0,.57-.37,1.05-.93.94-1.75.05-.39-.04-.84-.36-1.38-.05-.1-.06-.21-.06-.32.17.04.34.08.5.14l.04.07c.78,1.32.51,2.56-.73,3.38-.61.4-1.31.6-2,.6s-1.39-.2-1.98-.6c-.59-.39-.93-.93-1.01-1.56-.09-.72.2-1.43.5-1.96.07-.01.15-.03.24-.05-.24.54-.43,1.23-.29,1.87h0Z"/>
        <path class="cls-8" d="M100.83,103.37c.08.63.42,1.17,1.01,1.56.59.4,1.28.6,1.98.6s1.39-.2,2-.6c1.24-.82,1.51-2.06.73-3.38l-.04-.07c.51.16.99.38,1.42.69.21.55,1.03,2.92,0,4.52-.72,1.1-2.19,1.65-4.37,1.65-.02,0-2.52-.04-3.63-1.69-.75-1.11-.73-2.74.06-4.85.22-.1.71-.25,1.35-.39-.3.53-.59,1.24-.5,1.96Z"/>
        <path class="cls-5" d="M101.59,101.02c-.08.11-.17.24-.26.39-.64.14-1.13.29-1.35.39-.79,2.11-.81,3.74-.06,4.85,1.11,1.65,3.61,1.69,3.63,1.69,2.18,0,3.65-.55,4.37-1.65,1.04-1.6.22-3.97,0-4.52-.43-.31-.91-.53-1.42-.69l-.04-.08c-.06-.1-.12-.21-.19-.32.48.16,1.29.45,1.93.68.01.01.02.01.03.02.04.02.07.04.1.07,0,0,3.09,6.99-4.79,6.99,0,0-6.84-.04-3.98-7.36,0-.06.35-.2.9-.36t.02,0c.36-.06.73-.08,1.1-.09Z"/>
        <path class="cls-5" d="M103.55,109.34c-.13,0-3.04-.04-4.45-2.12-.96-1.42-.97-3.38-.03-5.84.21-.04.65-.1.85-.15.18-.05.37-.09.55-.11-.55.16-.89.3-.9.36-2.86,7.32,3.98,7.36,3.98,7.36,7.88,0,4.79-6.99,4.79-6.99-.03-.03-.06-.05-.1-.07.28.1.53.19.7.25.33.91,1.02,3.36-.18,5.21-.91,1.39-2.66,2.1-5.21,2.1Z"/>
      </g>
    </g>
  </g>
  <g id="R_eyebrow" data-name="R eyebrow">
    <g>
      <path class="cls-4" d="M149.79,90.31c-.16,1.4.46,2.33,1.84,2.76.39.12.82.07,1.21-.11l.17-.09c7.54-3.63,12.26-5.92,15.17-7.32s4.01-1.93,4.29-2.08c.24-.12.67-.18,1.23-.19,2.57-.02,8.04,1.05,12.19,1.94-1.62-.9-2.98-1.69-4.15-2.37-3.71-2.18-5.57-3.28-8.07-3.2-1.95.04-13.54,5.02-22.87,9.28-.55.24-.94.78-1,1.38Z"/>
      <g class="cls-17">
        <path class="cls-6" d="M181.77,82.32c.2-.02.26-.2.34-.36l.13.1c-.18.26-.48.35-.72.45l-.72.38-1.44.76c-.48.27-.97.51-1.38.83-.42.32-.7.9-1.27.99.25-.14.42-.33.53-.57.47-.7,1.3-1.07,2-1.47.48-.25,1.71-.91,2.18-1.15.41-.16.76-.35,1.1-.59-.2.21-.39.7-.74.63h0Z"/>
        <path class="cls-6" d="M181.74,86.99c1.01-1.03,5.54-3.09,1.65-3.53-2.18-.01-3.87,1.74-5.37,3.14.62-.9,1.39-1.7,2.3-2.31,1.1-.77,2.55-1.37,3.91-.94.39.12.93.35.98.84-.39,1.45-2.32,2.05-3.47,2.81h0Z"/>
        <path class="cls-6" d="M181.99,81.75c.22.03.19-.34.04-.34-1.99.6-3.83,2.01-5.27,3.52-.52.59-1.03,1.19-1.55,1.79.18-.35.38-.7.59-1.04,1.47-1.9,3.43-3.41,5.63-4.35.18-.06.42-.15.65-.04.26.11.14.56-.09.46h0Z"/>
        <path class="cls-6" d="M163.66,89.5c1.3-3.97,4.07-7.6,7.92-9.38.96-.42,2.01-.78,3.1-.63,1.12.12,2.1,1.27,1.62,2.39-.72,2.06-2.68,3.22-3.65,5.09.36-1,1.12-1.77,1.73-2.61.65-.8,1.36-1.61,1.69-2.56.62-2.54-2.72-2.37-4.38-1.45-3.85,1.73-6.34,5.41-8.02,9.15h0Z"/>
        <path class="cls-6" d="M167.8,81.24l-.87,1.04c-2.23,2.23-3.87,4.93-5.5,7.61,1.39-3.29,3.63-6.35,6.37-8.65h0Z"/>
        <path class="cls-6" d="M157,86.21c-1.87,1.77-2.27,4.39-3.11,6.72,0,0-.23-.09-.23-.09,1.04-2.32,2.39-4.61,4.45-6.21,2.1-1.47,4.47-2.49,6.06-4.57-1.33,2.27-3.84,3.35-5.91,4.77-2,1.55-3.34,3.81-4.37,6.11l-.23-.09c.83-2.31,1.23-5.07,3.35-6.64h0Z"/>
        <path class="cls-6" d="M149.8,93.81c.85-2.5,2.44-4.69,4.21-6.63,0,0,.19.16.19.16-1.59,2.07-3.04,4.24-4.4,6.47h0ZM149.8,93.81c.98-2.44,2.65-4.52,4.2-6.62,0,0,.19.16.19.16-1.81,1.9-3.16,4.16-4.39,6.46h0Z"/>
        <path class="cls-6" d="M156.25,86.8c-2.24,1.67-3.9,3.88-4.88,6.49.51-2.68,2.44-5.26,4.88-6.49h0Z"/>
        <path class="cls-6" d="M154.29,93.15c1.45-2.85,3.36-5.43,5.31-7.95,0,0,.18.17.18.17-2.33,2.2-4.14,4.89-5.49,7.78h0ZM154.29,93.15c.96-3.09,3.02-5.73,5.32-7.96,0,0,.18.17.18.17-1.99,2.49-3.69,5.18-5.5,7.8h0Z"/>
        <path class="cls-6" d="M163.78,83.61c-.86,1.4-2.03,2.75-2.95,4.1-.97,1.31-1.85,2.87-2.89,4.14,0,0,.57-1.14.57-1.14l.69-1.06c1.43-2.06,2.8-4.26,4.58-6.04h0Z"/>
        <path class="cls-6" d="M166.39,83.1c-.93,1.34-2.17,2.61-3.15,3.91-1.03,1.25-1.99,2.75-3.08,3.96,0,0,.62-1.1.62-1.1l.74-1.02c1.53-1.97,3.01-4.08,4.88-5.75h0Z"/>
        <path class="cls-6" d="M170.11,81.72c-.71,1.08-2.12,2.43-2.99,3.4-.89.93-2.17,2.45-3.17,3.23.7-1.05,2.13-2.45,2.99-3.4.91-.94,2.14-2.44,3.17-3.23h0Z"/>
        <path class="cls-6" d="M175.15,79.23c-2.05,1.88-4.67,3.18-6.25,5.51,0,0-.19-.16-.19-.16,1.73-1.69,3.7-3.1,5.41-4.77l.09.21c-.19.09-.59.29-.78.39-.31.15-.53.3-.89.41,0,0,.09-.04.09-.04-1.71,1.86-4.13,4.48-5.92,6.21,1.63-1.91,4.02-4.65,5.83-6.42.69-.31,1.33-.76,2.1-.91-2.11,2.09-4.54,3.8-6.6,5.92,1.6-2.89,4.51-4.52,7.11-6.36h0Z"/>
        <path class="cls-6" d="M168.96,86.89c1.2-2.82,3.6-5.01,6.32-6.35,0,0,.12.22.12.22-2.44,1.64-4.34,4.1-6.44,6.13h0ZM168.96,86.89c1.8-2.34,3.87-4.65,6.3-6.34,0,0,.12.22.12.22-2.73,1.3-4.87,3.57-6.43,6.13h0Z"/>
        <path class="cls-6" d="M179.15,81.37c-2.41,1.17-4.38,2.94-5.76,5.24.93-2.45,3.23-4.55,5.76-5.24h0Z"/>
        <path class="cls-6" d="M182.03,81.99c-.56.59-1.66,1.13-2.34,1.57-.4.24-1.42.87-1.8,1.1,0,0-.67.26-.67.26l.53-.47c.38-.23,1.41-.86,1.8-1.1.71-.4,1.68-1.13,2.47-1.36h0Z"/>
        <path class="cls-6" d="M180.29,86.7c1.65-1.18,3.33-2.31,4.81-3.69l.14.21c-1.91.86-3.67,2.46-5.3,3.77-.57.45-1.2.84-1.83,1.21.59-.44,1.11-.94,1.68-1.4,1.86-1.52,3.81-3.23,6.07-4.12-1.68,1.56-3.46,3.08-5.56,4.03h0Z"/>
        <path class="cls-6" d="M176.33,80.18c-2.29,1.15-3.99,3.02-5.23,5.23,0,0-.21-.13-.21-.13,1.6-2.53,4.62-3.46,7.22-4.56,0,0,.1.23.1.23-2.25,1.12-2.62,3.94-4.32,5.64,0,0-.17-.18-.17-.18,2.3-1.87,4.91-3.35,7.7-4.32-2.69,1.18-5.24,2.69-7.55,4.51,0,0-.17-.18-.17-.18,1.67-1.7,2.09-4.57,4.39-5.69l.1.23c-2.55,1.08-5.55,2.01-7.1,4.45,0,0-.21-.13-.21-.13,1.21-2.25,3.06-4.13,5.45-5.1h0Z"/>
        <path class="cls-6" d="M163.47,88.69c1.41-2.27,3.4-4.17,5.32-6.01,0,0,1-.89,1-.89l1.1-.77c-1.19,1.26-2.67,2.44-3.84,3.71-1.22,1.22-2.36,2.73-3.58,3.97h0Z"/>
        <path class="cls-6" d="M168.97,81.58c-2.37,2.39-5.09,4.6-6.8,7.53,0,0-.22-.11-.22-.11,1-2.02,2.33-3.84,3.51-5.73l.11.19c-2.85.55-4,3.83-5.39,6.06,1.17-2.47,2.48-6.01,5.62-6.33-1.22,1.98-2.6,3.85-3.62,5.92l-.22-.11c1.76-2.97,4.37-5.27,7.02-7.41h0Z"/>
        <path class="cls-6" d="M156.03,87.21c-1.5,1.14-2.01,2.79-2.42,4.54,0,0-.21-.12-.21-.12,2.67-2.74,5.31-5.56,8.38-7.86-2.87,2.79-5.85,5.47-8.56,8.41.34-1.01.5-2.06.94-3.06.38-.86,1.17-1.39,1.87-1.91h0Z"/>
        <path class="cls-6" d="M170.54,86.26c1.37-2.58,3.59-4.64,6.04-6.2,0,0,.12.22.12.22-2.81,1.08-4.96,3.23-6.15,5.98h0ZM170.54,86.26c.81-2.97,3.28-5.1,6.05-6.21,0,0,.12.22.12.22-2.47,1.51-4.46,3.67-6.17,5.99h0Z"/>
        <path class="cls-6" d="M173.08,86.77c1.45-1.57,4.42-4.69,5.92-6.22,0,0,.15.2.15.2-2.62,1.28-4.74,3.43-6.06,6.02h0ZM173.08,86.77c1.03-3.1,3.78-5.25,6.64-6.6-1.94,1.97-4.66,4.7-6.64,6.6h0Z"/>
        <path class="cls-6" d="M175.66,89.36c1.45-3,3.91-5.44,6.68-7.25,0,0,.12.22.12.22-2.98,1.49-4.98,4.34-6.8,7.03h0ZM175.66,89.36c1.49-2.96,3.7-5.71,6.69-7.26,0,0,.12.22.12.22-2.79,1.77-5.01,4.29-6.82,7.04h0Z"/>
        <path class="cls-6" d="M184.88,84.39c-.35.07-1.03.24-1.37.34-3.26.74-5.8,3.21-7.2,6.17,1.05-3.61,4.8-6.48,8.57-6.52h0Z"/>
        <path class="cls-6" d="M174.04,87.42c1.41-2.99,4.17-5.21,7.28-6.28,0,0,.04.24.04.24-3.32.16-6.76,1.15-9.29,3.36-.83.73-1.58,1.6-2.02,2.65.35-1.07,1-2.06,1.85-2.83,2.81-2.45,6.65-3.4,10.32-3.46-3.41.97-6.32,3.31-8.17,6.32h0Z"/>
        <path class="cls-6" d="M160.38,89.7c2.02-3.68,5.03-6.81,8.67-8.92,0,0,.13.22.13.22-2.89,1.69-6.28,2.48-8.76,4.81-2.51,2.2-4.72,4.76-6.45,7.62l-.53.87.3-.97c.96-3.18,1.88-6.79,4.83-8.75,0,0,.15.2.15.2-1.89,1.48-4.19,2.21-6.2,3.38-2.13,1.1-3.39,3.31-3.48,5.69,0-2.4,1.23-4.71,3.36-5.9,2.05-1.2,4.33-1.92,6.17-3.37l.15.2c-2.89,1.93-3.78,5.47-4.73,8.62,0,0-.23-.1-.23-.1,1.75-2.88,3.97-5.46,6.5-7.67,2.49-2.34,5.92-3.15,8.8-4.84,0,0,.13.22.13.22-3.57,2.13-6.64,5.13-8.79,8.7h0Z"/>
        <path class="cls-6" d="M173.2,79.93c-1.43,1.16-3.17,1.88-4.55,3.09-2.49,2.32-4.54,5.11-6.3,8.02,0,0,.33-1,.33-1,1.21-3.19,1.69-9.07,6.17-9.02,0,0-.28.22-.28.22-2.88,2.31-5.62,4.88-7.64,8,1.8-3.28,4.58-5.89,7.48-8.19,0,0,.08.22.08.22-4,.33-4.42,5.85-5.58,8.85,0,0-.22-.11-.22-.11,2.02-3.04,4.17-6.29,7.32-8.25,1.08-.61,2.2-1.11,3.19-1.84h0Z"/>
        <path class="cls-6" d="M156.94,91.35c1.39-3.31,3.93-6.05,6.87-8.07,0,0,.15.2.15.2-2.65,2.33-5.08,4.92-7.02,7.88h0ZM156.94,91.35c1.59-3.19,4.24-5.7,6.85-8.06,0,0,.15.2.15.2-2.96,1.98-5.25,4.8-7.01,7.87h0Z"/>
        <path class="cls-6" d="M153.86,87.19c-1.81,1.96-1.63,4.79-2.5,7.18,0,0-.24-.08-.24-.08.94-3.4,3.12-6.35,5.91-8.47.92-.71,1.98-1.31,3.13-1.49-4.25,1.66-7.53,5.7-8.8,10.04,0,0-.24-.08-.24-.08.86-2.35.65-5.34,2.74-7.1h0Z"/>
        <path class="cls-6" d="M166.52,87.49c.95-2.79,2.81-5.19,4.97-7.16,0,0,.17.18.17.18-1.95,2.02-3.44,4.75-5.14,6.98h0ZM166.52,87.49c1.37-2.47,3.03-5.08,4.96-7.15,0,0,.17.18.17.18-2.19,1.93-3.81,4.39-5.14,6.97h0Z"/>
        <path class="cls-6" d="M177.48,80.51c-.98.71-2.55,1.48-3.65,2.01-1.23.63-2.47,1.28-3.48,2.2l-.17-.18,2.59-2.41c.73-.72,1.86-1.67,2.67-2.32-.71.78-1.73,1.82-2.5,2.5,0,0-2.59,2.41-2.59,2.41l-.17-.18c2.11-1.81,4.84-2.84,7.31-4.03h0Z"/>
        <path class="cls-6" d="M174.75,84.52c1.18-1.52,2.93-2.52,4.69-3.23,0,0,.08.23.08.23-1.73.64-3.15,2.12-4.78,2.99h0ZM174.75,84.52c1.41-1.24,2.93-2.52,4.7-3.23,0,0,.08.24.08.24-1.79.66-3.31,1.81-4.78,3h0Z"/>
        <path class="cls-6" d="M182.89,83.13c-1,1.15-2.72,1.89-4.24,1.87,1.27-.45,2.61-.75,3.7-1.61,0,0,.54-.26.54-.26h0Z"/>
        <path class="cls-6" d="M157.67,88.74c-.19-.03.01-.39.22-.22.15.14.1.36.06.5-.8,1.49-1.76,2.93-2.83,4.24,0,0-.64.57-.64.57l.45-.73c1.06-1.3,2.01-2.72,2.8-4.19.07-.1.12-.22.07-.3.02-.09-.27.05-.12.13h0Z"/>
        <path class="cls-6" d="M158.83,85.26l-.65.68c-1.72,1.39-2.87,3.26-4.02,5.1.82-2.33,2.56-4.5,4.67-5.79h0Z"/>
        <path class="cls-6" d="M149.68,93.18c-.03-1.8,1.03-3.73,2.66-4.54.16-.07,1.84-.75,1.96-.79-.69,2.46-3.6,3.11-4.61,5.33h0ZM149.68,93.18c.57-2.32,3.55-2.96,4.29-5.15l.17.15-1.67.67c-1.61.79-2.46,2.64-2.8,4.33h0Z"/>
        <path class="cls-6" d="M155.4,87.08l-.42.91c-1.25,1.99-1.84,4.25-2.48,6.49.2-2.63,1.26-5.34,2.91-7.4h0Z"/>
        <path class="cls-6" d="M161.57,84.55c-.26-.07.11-.51.31-.23.15.22.05.47-.02.65-.82,1.45-2.04,3.6-2.86,5.06-.37.7-.77,1.33-1.25,1.96,0,0,.46-1.07.46-1.07.82-1.45,2.04-3.6,2.86-5.06,0,0,.57-1.01.57-1.01.13-.15.27-.62-.04-.48-.07.03-.15.16-.03.19h0Z"/>
        <path class="cls-6" d="M165.47,83.01c-.8,1.07-1.87,2.05-2.66,3.12-.85,1.02-1.56,2.29-2.42,3.31,0,0,.43-.94.43-.94l.57-.86c1.2-1.65,2.43-3.4,4.08-4.62h0Z"/>
        <path class="cls-6" d="M169.17,81.29l-.84.91c-2.17,1.94-3.67,4.43-5.09,6.94,1.12-3.08,3.27-5.94,5.93-7.85h0Z"/>
      </g>
      <path class="cls-3" d="M149.79,90.31c-.16,1.4.46,2.33,1.84,2.76.39.12.82.07,1.21-.11l.17-.09c7.54-3.63,12.26-5.92,15.17-7.32s4.01-1.93,4.29-2.08c.24-.12.67-.18,1.23-.19,2.57-.02,8.04,1.05,12.19,1.94-1.62-.9-2.98-1.69-4.15-2.37-3.71-2.18-5.57-3.28-8.07-3.2-1.95.04-13.54,5.02-22.87,9.28-.55.24-.94.78-1,1.38Z"/>
    </g>
  </g>
  <g id="L_eyebrow" data-name="L eyebrow">
    <g>
      <path class="cls-4" d="M118.88,89.42c.17,1.4-.45,2.33-1.82,2.77-.39.12-.82.08-1.21-.1l-.17-.09c-7.56-3.58-12.3-5.84-15.22-7.23s-4.02-1.91-4.3-2.05c-.24-.12-.67-.18-1.23-.18-2.57,0-8.03,1.1-12.18,2.02,1.61-.91,2.97-1.71,4.14-2.4,3.7-2.2,5.55-3.31,8.05-3.25,1.95.03,13.57,4.94,22.93,9.14.55.24.94.77,1.01,1.37Z"/>
      <g class="cls-10">
        <path class="cls-6" d="M86.85,81.62c-.35.07-.55-.42-.75-.63.34.24.69.43,1.1.59.46.24,1.71.89,2.18,1.14.7.39,1.53.75,2,1.45.12.25.29.43.54.57-.27-.05-.54-.22-.72-.43-.8-.98-2.31-1.5-3.39-2.13,0,0-.72-.37-.72-.37-.23-.1-.54-.18-.72-.44l.13-.1c.07.16.14.34.34.36h0Z"/>
        <path class="cls-6" d="M86.91,86.29c-1.17-.69-2.52-1.21-3.35-2.34-.14-.19-.18-.47-.08-.69,1.27-1.39,3.53-.6,4.83.33.92.61,1.69,1.4,2.31,2.29-1.5-1.39-3.21-3.14-5.39-3.11-3.88.47.66,2.5,1.68,3.52h0Z"/>
        <path class="cls-6" d="M86.63,81.05c-.23.1-.36-.35-.1-.46.23-.11.46-.02.65.03,2.52,1.11,4.96,2.87,6.26,5.35-1.73-2.13-3.76-4.1-6.35-5.12-.17-.09-.34-.19-.5-.14-.15,0-.18.37.04.34h0Z"/>
        <path class="cls-6" d="M100.81,80.45c2.75,2.28,5.02,5.33,6.42,8.61-1.65-2.67-3.3-5.36-5.55-7.57,0,0-.87-1.03-.87-1.03h0Z"/>
        <path class="cls-6" d="M111.65,85.36c2.13,1.55,2.55,4.31,3.39,6.62,0,0-.23.09-.23.09-1.05-2.29-2.4-4.54-4.41-6.08-2.07-1.41-4.6-2.48-5.94-4.74,1.6,2.08,3.98,3.08,6.09,4.54,2.07,1.59,3.43,3.87,4.48,6.18l-.23.09c-.86-2.32-1.27-4.95-3.15-6.7h0Z"/>
        <path class="cls-6" d="M118.89,92.91c-1.25-2.29-2.61-4.54-4.43-6.43,0,0,.19-.16.19-.16,1.56,2.09,3.24,4.16,4.24,6.59h0ZM118.89,92.91c-1.37-2.22-2.84-4.38-4.44-6.44,0,0,.19-.16.19-.16,1.79,1.92,3.38,4.1,4.25,6.6h0Z"/>
        <path class="cls-6" d="M112.4,85.95c2.45,1.22,4.39,3.78,4.92,6.46-.99-2.61-2.67-4.8-4.92-6.46h0Z"/>
        <path class="cls-6" d="M114.4,92.29c-1.83-2.6-3.55-5.28-5.55-7.76,0,0,.18-.17.18-.17,2.31,2.22,4.38,4.84,5.37,7.93h0ZM114.4,92.29c-1.37-2.89-3.2-5.56-5.54-7.75,0,0,.18-.17.18-.17,1.96,2.51,3.89,5.08,5.36,7.92h0Z"/>
        <path class="cls-6" d="M104.85,82.8c1.79,1.77,3.18,3.96,4.62,6.01,0,0,.7,1.06.7,1.06l.57,1.13c-1.04-1.27-1.94-2.81-2.91-4.12-.93-1.34-2.11-2.69-2.98-4.08h0Z"/>
        <path class="cls-6" d="M102.23,82.31c1.88,1.66,3.37,3.75,4.91,5.72,0,0,.74,1.01.74,1.01l.62,1.1c-1.1-1.2-2.07-2.7-3.11-3.94-.99-1.28-2.24-2.55-3.18-3.89h0Z"/>
        <path class="cls-6" d="M98.51,80.95c1.02.78,2.28,2.28,3.19,3.21.86.95,2.29,2.33,3.01,3.38-1-.78-2.3-2.29-3.19-3.21-.88-.97-2.28-2.31-3.01-3.38h0Z"/>
        <path class="cls-6" d="M93.45,78.49c2.61,1.82,5.53,3.43,7.15,6.31-2.07-2.11-4.51-3.81-6.64-5.88.77.15,1.41.6,2.1.9,1.83,1.77,4.22,4.48,5.87,6.39-1.8-1.71-4.25-4.33-5.96-6.18,0,0,.09.04.09.04-.36-.11-.58-.26-.89-.41-.19-.1-.59-.29-.78-.38,0,0,.09-.22.09-.22,1.73,1.66,3.7,3.06,5.44,4.73l-.19.16c-1.59-2.32-4.22-3.61-6.28-5.47h0Z"/>
        <path class="cls-6" d="M99.69,86.11c-1.57-2.55-3.73-4.8-6.47-6.09,0,0,.12-.22.12-.22,2.44,1.68,4.53,3.98,6.34,6.3h0ZM99.69,86.11c-2.11-2.02-4.03-4.47-6.48-6.09l.12-.22c2.72,1.33,5.14,3.5,6.36,6.31h0Z"/>
        <path class="cls-6" d="M89.47,80.66c2.53.68,4.85,2.76,5.79,5.21-1.4-2.29-3.37-4.05-5.79-5.21h0Z"/>
        <path class="cls-6" d="M86.58,81.3c.78.22,1.77.95,2.47,1.34.4.24,1.42.86,1.81,1.09,0,0,.54.47.54.47l-.67-.26c-.38-.23-1.41-.85-1.81-1.09-.68-.44-1.78-.97-2.35-1.56h0Z"/>
        <path class="cls-6" d="M88.36,85.99c-2.1-.95-3.89-2.45-5.58-4,2.27.87,4.23,2.58,6.1,4.08.57.45,1.1.96,1.68,1.39-1.13-.58-2.55-1.75-3.54-2.56-1.14-.9-2.31-1.78-3.63-2.36l.13-.21c1.49,1.38,3.18,2.49,4.84,3.66h0Z"/>
        <path class="cls-6" d="M92.28,79.45c2.39.95,4.26,2.83,5.48,5.07,0,0-.21.13-.21.13-1.57-2.44-4.56-3.35-7.13-4.41,0,0,.1-.23.1-.23,2.3,1.11,2.74,3.97,4.42,5.66,0,0-.17.19-.17.19-2.32-1.81-4.88-3.3-7.57-4.47,2.8.95,5.42,2.42,7.73,4.27,0,0-.17.19-.17.19-1.7-1.69-2.1-4.5-4.35-5.61,0,0,.1-.23.1-.23,2.61,1.08,5.63,2,7.25,4.51,0,0-.21.13-.21.13-1.26-2.2-2.97-4.07-5.27-5.2h0Z"/>
        <path class="cls-6" d="M105.19,87.87c-1.23-1.23-2.37-2.73-3.6-3.94-1.18-1.26-2.67-2.43-3.87-3.68,0,0,1.11.76,1.11.76l1.01.89c1.93,1.83,3.93,3.72,5.35,5.98h0Z"/>
        <path class="cls-6" d="M99.65,80.8c2.66,2.13,5.29,4.41,7.07,7.37,0,0-.22.12-.22.12-1.04-2.06-2.43-3.93-3.66-5.9,3.14.29,4.47,3.83,5.66,6.29-1.4-2.22-2.57-5.49-5.43-6.02,0,0,.11-.19.11-.19,1.19,1.88,2.52,3.7,3.54,5.71l-.22.12c-1.73-2.92-4.46-5.11-6.85-7.49h0Z"/>
        <path class="cls-6" d="M112.62,86.35c.71.51,1.5,1.04,1.89,1.9.44,1,.61,2.05.96,3.06-2.74-2.93-5.73-5.59-8.61-8.36,3.08,2.28,5.74,5.09,8.43,7.81,0,0-.21.12-.21.12-.42-1.75-.94-3.4-2.45-4.52h0Z"/>
        <path class="cls-6" d="M98.11,85.49c-1.72-2.31-3.73-4.45-6.21-5.95,0,0,.11-.22.11-.22,2.78,1.09,5.27,3.21,6.09,6.17h0ZM98.11,85.49c-1.21-2.74-3.38-4.88-6.19-5.94,0,0,.12-.22.12-.22,2.46,1.54,4.69,3.58,6.08,6.16h0Z"/>
        <path class="cls-6" d="M95.57,86.02c-1.99-1.88-4.73-4.6-6.68-6.55,2.87,1.33,5.63,3.46,6.68,6.55h0ZM95.57,86.02c-1.34-2.59-3.47-4.72-6.1-5.98,0,0,.14-.2.14-.2,1.5,1.52,4.49,4.62,5.96,6.18h0Z"/>
        <path class="cls-6" d="M93.01,88.62c-1.82-2.74-4.06-5.24-6.86-7,0,0,.12-.22.12-.22,3,1.53,5.23,4.26,6.74,7.22h0ZM93.01,88.62c-1.84-2.68-3.86-5.52-6.85-6.99,0,0,.12-.22.12-.22,2.78,1.8,5.25,4.22,6.73,7.21h0Z"/>
        <path class="cls-6" d="M83.75,83.71c3.76.02,7.54,2.86,8.61,6.46-1.41-2.96-3.97-5.41-7.23-6.13-.34-.1-1.03-.27-1.37-.34h0Z"/>
        <path class="cls-6" d="M94.61,86.68c-1.87-3-4.79-5.32-8.21-6.26,3.66.03,7.51.96,10.34,3.39.85.77,1.5,1.75,1.87,2.82-.44-1.05-1.2-1.9-2.03-2.63-2.55-2.19-6-3.16-9.31-3.3,0,0,.04-.24.04-.24,3.11,1.04,5.89,3.25,7.31,6.23h0Z"/>
        <path class="cls-6" d="M108.28,88.87c-2.18-3.56-5.26-6.54-8.85-8.65,0,0,.13-.22.13-.22,2.89,1.67,6.33,2.46,8.83,4.78,2.54,2.2,4.78,4.77,6.55,7.63l-.23.1c-.97-3.14-1.88-6.68-4.79-8.59,0,0,.15-.2.15-.2,1.85,1.44,4.14,2.14,6.19,3.33,2.13,1.17,3.37,3.48,3.39,5.88-.1-1.17-.37-2.34-.98-3.34-1.98-3.08-6.01-3.45-8.75-5.67,0,0,.15-.2.15-.2,3.26,2.16,4.05,6.23,5.19,9.69,0,0-.53-.86-.53-.86-1.75-2.84-3.97-5.39-6.5-7.58-2.49-2.31-5.89-3.08-8.79-4.76,0,0,.13-.22.13-.22,3.65,2.09,6.68,5.2,8.72,8.86h0Z"/>
        <path class="cls-6" d="M95.4,79.18c1,.72,2.12,1.22,3.2,1.82,3.16,1.95,5.33,5.18,7.37,8.2,0,0-.22.11-.22.11-1.18-2.99-1.64-8.52-5.64-8.82,0,0,.08-.22.08-.22,2.92,2.28,5.71,4.88,7.53,8.15-2.1-3.21-4.97-5.81-7.96-8.17,4.48-.08,4.99,5.79,6.23,8.98,0,0,.33,1,.33,1-1.77-2.9-3.84-5.67-6.35-7.98-1.39-1.21-3.13-1.92-4.57-3.07h0Z"/>
        <path class="cls-6" d="M111.73,90.5c-1.78-3.06-4.09-5.86-7.06-7.82,0,0,.15-.2.15-.2,2.63,2.35,5.29,4.84,6.9,8.02h0ZM111.73,90.5c-1.96-2.94-4.4-5.52-7.07-7.83,0,0,.15-.2.15-.2,2.95,2.01,5.5,4.73,6.92,8.03h0Z"/>
        <path class="cls-6" d="M114.79,86.32c2.1,1.74,1.91,4.73,2.78,7.08,0,0-.24.08-.24.08-1.3-4.33-4.61-8.34-8.87-9.98,1.15.18,2.22.77,3.14,1.47,2.8,2.1,5,5.05,5.96,8.44,0,0-.24.08-.24.08-.89-2.39-.73-5.22-2.55-7.17h0Z"/>
        <path class="cls-6" d="M102.13,86.7c-1.34-2.57-2.98-5.03-5.18-6.94,0,0,.17-.18.17-.18,1.94,2.05,3.63,4.66,5.01,7.12h0ZM102.13,86.7c-1.72-2.22-3.22-4.94-5.19-6.95l.17-.18c2.17,1.95,4.05,4.35,5.01,7.13h0Z"/>
        <path class="cls-6" d="M91.13,79.79c2.48,1.18,5.21,2.19,7.33,3.98,0,0-.17.18-.17.18l-2.6-2.39c-.77-.68-1.81-1.72-2.52-2.49.83.65,1.94,1.58,2.69,2.3,0,0,2.6,2.39,2.6,2.39l-.17.18c-1.02-.91-2.27-1.55-3.5-2.18-1.11-.53-2.67-1.28-3.67-1.99h0Z"/>
        <path class="cls-6" d="M93.88,83.78c-1.48-1.17-3.01-2.32-4.8-2.97,0,0,.08-.24.08-.24,1.77.7,3.3,1.97,4.72,3.2h0ZM93.88,83.78c-1.63-.86-3.06-2.33-4.79-2.96,0,0,.08-.24.08-.24,1.77.7,3.52,1.68,4.71,3.2h0Z"/>
        <path class="cls-6" d="M85.74,82.44l.54.25c1.09.85,2.43,1.15,3.71,1.58-1.52.04-3.24-.7-4.25-1.84h0Z"/>
        <path class="cls-6" d="M110.99,87.89c.15-.08-.14-.23-.12-.13-.05.08,0,.2.07.3.8,1.47,1.76,2.88,2.82,4.17,0,0,.45.72.45.72l-.65-.56c-1.08-1.3-2.05-2.74-2.86-4.23-.05-.14-.1-.35.05-.5.21-.17.42.19.22.22h0Z"/>
        <path class="cls-6" d="M109.8,84.42c2.11,1.28,3.87,3.43,4.71,5.76-1.16-1.84-2.33-3.7-4.05-5.08,0,0-.66-.68-.66-.68h0Z"/>
        <path class="cls-6" d="M119.01,92.28c-.35-1.69-1.21-3.54-2.82-4.31,0,0-1.67-.66-1.67-.66l.17-.15c.75,2.19,3.73,2.81,4.32,5.12h0ZM119.01,92.28c-1.03-2.21-3.94-2.84-4.65-5.3.11.05,1.8.71,1.96.78,1.63.8,2.7,2.72,2.69,4.52h0Z"/>
        <path class="cls-6" d="M113.25,86.22c1.66,2.05,2.74,4.75,2.95,7.38-.65-2.23-1.26-4.49-2.52-6.47,0,0-.43-.91-.43-.91h0Z"/>
        <path class="cls-6" d="M107.07,83.73c.2-.08-.16-.34-.2-.16-.06.13.03.31.13.45l.58,1.01c.83,1.45,2.06,3.59,2.89,5.04l.47,1.07-.69-.95c-1.06-1.85-2.41-4.21-3.47-6.05-.07-.18-.17-.43-.02-.65.2-.28.57.16.32.23h0Z"/>
        <path class="cls-6" d="M103.15,82.22c1.66,1.21,2.91,2.95,4.11,4.6,0,0,.57.86.57.86l.44.94c-.86-1.02-1.58-2.28-2.44-3.3-.8-1.06-1.88-2.04-2.68-3.1h0Z"/>
        <path class="cls-6" d="M99.45,80.51c2.67,1.9,4.84,4.74,5.98,7.81-1.43-2.5-2.95-4.98-5.13-6.91,0,0-.85-.91-.85-.91h0Z"/>
      </g>
      <path class="cls-3" d="M118.88,89.42c.17,1.4-.45,2.33-1.82,2.77-.39.12-.82.08-1.21-.1l-.17-.09c-7.56-3.58-12.3-5.84-15.22-7.23s-4.02-1.91-4.3-2.05c-.24-.12-.67-.18-1.23-.18-2.57,0-8.03,1.1-12.18,2.02,1.61-.91,2.97-1.71,4.14-2.4,3.7-2.2,5.55-3.31,8.05-3.25,1.95.03,13.57,4.94,22.93,9.14.55.24.94.77,1.01,1.37Z"/>
    </g>
  </g>
  <g id="hair">
    <g>
      <path class="cls-12" d="M76.88,268.41c-.5.08-4.9.4-12.8-8.12-1.2-.67-14.03-8.11-14.57-23.15-2.29,1.65-7.96,5.37-11.24,4.24-.73-.08-6.59-.82-9.52-5.22-3.38-5.07-7.37-14.5,2.23-22.42-3.36,1.18-8.15,2.57-11.75,2.45-10.84-.36-16.17-8.6-16.59-9.28-.34-.39-2.83-3.48-2.63-8.88.04-1.11.35-2.23.91-3.23,1.51-2.71,5.85-8.78,13.47-6.54.14.03,1.67.39,1.93,1.52.19.8-.3,1.65-1.48,2.59l-.11.07c-.06.02-5.57,2.46-6.77,5.73-.15.64-.42,2.97,2.82,4.67.11.06,11.71,6.03,18.95-1.39.08-.08,6.85-6.53,7.59-12.46.03-.24-.04-.47-.19-.65-.14-.16-.34-.26-.57-.26-2.51-.08-8.8-1.09-12.84-8.74-.09-.21-5.95-15.89,5.79-24.76.16-.17,5.19-5.1,12.17-4.81,1.09.06,2.17-.24,3.03-.82.91-.62,1.4-1.4,1.45-2.33.05-.8-.31-1.5-.62-1.94-1.18-1.71-4.78-6.34-12.69-12.47-.57-.44-1-.94-1.28-1.49-.79-1.51-1.74-4.98.73-11.22.2-.51.44-.98.71-1.5.71-1.37,1.55-3.96-.8-5.96-.38-.33-.65-.63-.85-.96-1.02-1.69-4.01-7.77.24-15.08.07-.17,2.49-5.69,11.74-16.37.34-.4.5-.92.42-1.43-.44-2.87-.83-10.36,4.95-17.7.49-.62.9-1.16,1.26-1.73,2.32-3.6,10.27-15.78,15.18-21.01,1.16-1.24,2.13-2.4,2.96-3.55,4.16-5.75,14.57-19.51,21.22-22.95.34-.17,1.26-.72,1.6-.95,3.12-2.04,14.34-8.77,27.7-9.53.35-.02.69-.05,1.04-.1,1.46-.23,6.71-.79,12.48,1.38.19.07.38.07.55.01,5.09-1.82,50.61-15.59,81.82,62.21.59,1.25,14.64,31.27,10.85,39.17-.06.18-1.9,5.12,4.16,9.09l.14.12c.53.7,13.09,17.25,5.02,34.61-.01.02-2.29,6.57,1.96,10.27.57.5,1.08,1.11,1.61,1.93,1.8,2.8,5.7,10.09,3.08,17.28-.84,3.31-1.8,10.07.65,11.6.3.12,9.27,3.9,11.1,17.43.02.17.04.35.05.53.07,1.18.62,7.17,4.65,9.24.24.12,6.06,3.15,5.14,13.18-.21,1.42-5.24,34.19-18.57,38.07-.08.04-3.4,1.44-5.45.16-.94-.59-1.46-1.61-1.53-3.04l-1.25-4.85c-.04-.17-.19-.2-.24-.2-.06,0-.17,0-.23.13-.3.65-.67,2.08-.68,5.2,0,.17-.01.33-.04.49-.34,1.98-1.38,6.52-3.77,6.52-.02,0-.04,0-.06,0-.66.1-4.24.11-9.66-9.18-.26-.45-.65-.79-1.1-.95-1.29-.47-3.26-.55-5.24,1.7-.53.86-5.46,8.72-11.16,12.57-.47.31-1,.57-1.64.76-1.47.46-4.42,1.22-7.75,1.22-4.67,0-10.1-1.48-13.36-7.34-.03-.06-1.85-4.31-.27-14.17-2.6,2.38-7.74,6.43-11.21,4.79-.04-.01-10.05-3.31-9.47-11.67.05-.51,1.42-12.11,10.47-15.53.04-.02,6.17-2.67,7.6-6.79.01-.17.18-2.41-1.5-4.2-.68-.73-1.72-1.08-2.77-.94-5.28.68-14.4,1.4-16.4-1.42-.46-.46-3.9-4.38.41-13.01l.08-.14c1.73-3,10.77-18.51,19.4-28.87v-.02c.84-1.06,13.51-17.48,14.16-31.25l-1.45-25.46c-.01-.12-1.45-13.93.63-27.8-.03-.9-.63-13.98-5.29-19.97-.13-.22-8.27-15.08-23.8-27.09-.14-.14-9.85-9.6-21.68-16.06-.84-.46-1.78-.73-2.8-.82-5.95-.5-9.39-1.23-10.21-2.15-.01,0-2.5-2.05-5.77-2.05-1,0-2.07.19-3.17.69l-.11.04c-.74.16-18.38,4.18-28.82,18.77-.1.13-9.2,11.83-11.25,20.89-.06.15-3.38,9.26-4.42,22.51-.03.15-1.7,8.01-2.53,20.65-.02.24-1.74,23.77,2.36,32.35.32.68.56,1.39.75,1.99,2.01,6.41,9.53,28.39,21.62,41.74.05.05,6.18,8.13,6.06,18.78-.01.84.05,1.76.21,2.88.76,5.68,2.4,19.7,1.22,27.22-.05.32-6.73,31.15-26.37,34.54Z"/>
      <g class="cls-11">
        <path class="cls-1" d="M130.63,3.76c-19.25,7.03-36.76,18.79-50.55,33.95-8.28,9.11-15.31,19.58-18.98,31.33-.92,2.93-1.62,5.93-2.32,8.92-3.29,14.03-6.6,28.21-6.64,42.62-.03,10.75,1.76,21.4,3.21,32.05,1.81,13.31,3.09,26.7,3.84,40.12.43,7.76.68,15.65-1.21,23.18-1.8,7.21-5.48,13.78-9.11,20.26"/>
        <path class="cls-1" d="M133,3.17c.44,8.78.89,17.55,1.33,26.33"/>
        <path class="cls-1" d="M26.15,238.83c14.27-25.94,15.62-56.8,16.24-86.41s1.11-60.32,13.98-86.98c7.93-16.43,20.18-30.4,33.22-43.17,5.98-5.86,12.24-11.57,19.62-15.52s16.07-5.99,24.22-4.1c7.61,1.76,14.35,6.83,21.55,9.86,3.3,1.39,6.85,2.09,10.25,3.22,15.42,5.12,26.53,18.54,35.16,32.31,12.6,20.11,21.83,42.62,24.64,66.18,1.15,9.65,1.22,19.42,2.78,29,1.42,8.69,4.05,17.18,5,25.94.8,7.39.39,14.85.35,22.29-.11,19.66,2.36,39.33,7.33,58.34"/>
        <path class="cls-1" d="M134.08,8.29c-29.39,10.03-55.68,31.28-67.74,59.9-8.09,19.22-9.5,40.49-10.81,61.31-.72,11.48-1.44,22.97-1.17,34.46.23,9.6,1.14,19.17,1.51,28.77.8,20.96-1.03,42.02-5.45,62.52"/>
        <path class="cls-1" d="M133.27,15.55c-18.89,4.05-35.5,16.23-46.89,31.83-11.39,15.6-17.82,34.43-20.64,53.55-2.15,14.61-2.27,29.42-2.38,44.19-.08,10.45-.16,20.89-.24,31.34-.21,26.96-.46,54.22-7.09,80.35"/>
        <path class="cls-1" d="M133.09,25.62c-8.62-2.57-18.41-.85-25.64,4.5-3.67,2.72-6.64,6.25-9.49,9.82-12.84,16.03-24.27,33.81-28.99,53.8-2.86,12.09-3.17,24.63-3.47,37.05-.22,8.86-.43,17.77.9,26.54,1.38,9.11,4.39,17.89,6.57,26.85,4.77,19.6,5.51,40.16,2.17,60.05-1.55,9.24-3.97,18.3-6.38,27.35"/>
        <path class="cls-1" d="M133.26,28.18c-20.54-.08-39.06,14.21-49.36,31.98-10.3,17.77-13.75,38.61-16.06,59.02-.75,6.66-1.4,13.36-1.01,20.05.9,15.18,7.1,29.47,11.25,44.1,8.34,29.43,8.32,61.18-.07,90.6"/>
        <path class="cls-1" d="M77.6,77.29c-8.61,21.49-11.37,45.29-7.89,68.18.71,4.64,1.67,9.27,3.44,13.62,1.69,4.15,4.08,7.96,6.14,11.94,8.12,15.74,10.75,33.86,10.28,51.56s-3.9,35.19-7.31,52.57"/>
        <path class="cls-1" d="M71.96,139.79c4.68,13.28,9.37,26.56,14.05,39.83,2.63,7.47,5.27,14.95,7.13,22.65,5.7,23.68,3.66,49.15-5.73,71.62"/>
        <path class="cls-1" d="M86.54,166.91c13.76,31.5,17.89,67.14,11.68,100.95"/>
        <path class="cls-1" d="M66.15,102.37c-.66,42.33,9.05,84.72,4.04,126.75-1.74,14.63-5.27,29.04-10.47,42.82"/>
        <path class="cls-1" d="M133.58,12.78c-17.44,4.55-33.41,14.61-45.04,28.38-5.05,5.97-9.27,12.59-13.43,19.21-3.02,4.8-6.03,9.64-8.35,14.82-3.97,8.87-5.84,18.52-7.43,28.11-3.08,18.56-5.24,37.3-5.75,56.11-.79,29.06,2.15,59.33-9.11,86.13"/>
        <path class="cls-1" d="M128.64,3.05c-15.63,3.31-27.74,15.42-38.05,27.62-19.37,22.91-36.3,49.11-41.55,78.65-2.98,16.77-2.08,33.94-1.9,50.97.31,29.57-1.59,59.17-5.67,88.46"/>
        <path class="cls-1" d="M39.84,187.41c-.22,9.18-.59,18.88-5.52,26.63-4.93,7.75-16.14,12.28-23.6,6.92"/>
        <path class="cls-1" d="M39.84,179.39c-.51,8.52-1.14,17.43-5.61,24.7-4.46,7.27-14.08,12.15-21.77,8.44-2.43-1.17-4.45-3.08-6.03-5.27-2.77-3.84-4.24-9-2.45-13.38,1.79-4.39,7.58-7.1,11.6-4.6"/>
        <path class="cls-1" d="M40.31,145.68l.57,18.57c.14,4.56.28,9.15-.49,13.65-1.76,10.35-8.08,19.25-14.23,27.75-2.61,3.6-5.74,7.52-10.16,8-3.86.41-7.64-2.19-9.33-5.69-1.68-3.5-1.52-7.67-.32-11.36,1.08-3.33,3.21-6.61,6.51-7.77,3.31-1.16,7.71.8,8.06,4.29"/>
        <path class="cls-1" d="M112.55,3.51c-16.29,3.24-27.99,17.19-37.77,30.6-11.32,15.52-22.04,31.68-29.3,49.47-7.26,17.79-10.92,37.43-7.74,56.37"/>
        <path class="cls-1" d="M88.16,13.01c-13.08,14.78-24.92,30.65-35.36,47.4-3.91,6.27-7.76,13.25-6.93,20.59"/>
        <path class="cls-1" d="M44.73,77.46c-.69.36-.02-1.26.47-.66s-.09,1.46-.64,2.02c-10.35,10.54-14.86,26.49-11.55,40.89"/>
        <path class="cls-1" d="M36.11,104.73c-3.66,10.62-3.8,22.42-.41,33.13"/>
        <path class="cls-1" d="M46.74,78.46c-12.15,21.69-16.51,47.64-12.12,72.11"/>
        <path class="cls-1" d="M39.31,150.62c-6.95,4.84-11.47,12.99-11.9,21.44-.43,8.45,3.25,17.02,9.67,22.54"/>
        <path class="cls-1" d="M40.14,150.07c-9.43,12.36-10.47,30.51-2.51,43.86"/>
        <path class="cls-1" d="M39.69,151.7c-5.92,13.87-5.7,30.24.6,43.94"/>
        <path class="cls-1" d="M35.63,150.29c-7.99,3.69-10.9,13.6-11.23,22.4-.37,9.86,1.38,19.79,5.09,28.93"/>
        <path class="cls-1" d="M40.01,150.71c-2.36,5.68-2.45,12.01-2.5,18.16-.11,13.13-.23,26.27-.34,39.4"/>
        <path class="cls-1" d="M44.95,147.29c3.46,33.86-2.49,68.62-17.01,99.4"/>
        <path class="cls-1" d="M133.86,8.16c5.24,4.16,10.61,8.15,16.1,11.96,6.83,4.74,13.85,9.2,20.62,14.03,3,2.14,5.95,4.35,8.84,6.62,14.81,11.64,21.11,30.78,26.66,48.79,3.9,12.67,7.81,25.36,10.63,38.32,9.38,43.2,6.39,88.3,15.06,131.65"/>
        <path class="cls-1" d="M133.52,17.49c8.84,4.62,16.3,11.44,23.66,18.18,12.72,11.67,25.6,23.52,34.86,38.09,9.26,14.56,14.55,31.29,18.34,48.12,8.81,39.1,10.01,79.49,9.8,119.56-.04,7.34-.11,14.8,1.9,21.87"/>
        <path class="cls-1" d="M134.59,6.84c6.18-.38,11.9,2.99,17.13,6.32,25.33,16.13,51.09,35.89,60.14,64.52,3.16,9.98,4.07,20.51,6.28,30.74,3.59,16.61,10.57,32.41,13.31,49.18,2.76,16.9,1.12,34.2,2.18,51.29,1.06,17.09,5.4,35.03,17.64,47.01"/>
        <path class="cls-1" d="M209.55,58.63c14.14,20.97,18.08,46.95,22.09,71.92,6.17,38.41,13.32,76.66,21.44,114.7.58,2.72,1.34,5.7,3.64,7.25,2.3,1.55,6.41.1,6.06-2.66"/>
        <path class="cls-1" d="M134.11,1.47c35.24,7.8,66.24,32.85,81.27,65.67,4.47,9.77,7.58,20.1,10.67,30.39,5.18,17.23,10.37,34.54,12.88,52.35,3.69,26.22,9.98,52.08,18.76,77.07.68,1.94,1.42,3.94,2.87,5.39,1.45,1.45,3.84,2.18,5.61,1.14.41-2.63-.02-5.39-1.21-7.78"/>
        <path class="cls-1" d="M134.81,24.25c11.68,4.21,20.82,13.31,29.55,22.14,8.82,8.92,17.76,18,23.76,29.02,5.11,9.37,7.9,19.8,10.38,30.18,9.92,41.43,15.61,83.86,16.98,126.44.26,8.12.38,16.35,2.61,24.16s6.91,15.3,14.13,19.02"/>
        <path class="cls-1" d="M185.16,77.37c7.54,11.84,9.58,26.24,11.44,40.15,5.97,44.54,11.95,89.09,17.92,133.63,1.14,8.49,2.79,17.9,9.62,23.08"/>
        <path class="cls-1" d="M184.86,93.69c5.28,9.67,6.23,21.04,7.07,32.03,2.12,27.82,4.24,55.64,6.36,83.46,1.36,17.88,2.79,36.07,9.26,52.8,4.01,10.37,9.92,20.01,17.35,28.29"/>
        <path class="cls-1" d="M187.53,91.1c3.25,7.09,5.41,14.68,6.39,22.42.97,7.7.78,15.5,1.05,23.26.89,25.22,6.74,49.98,12.67,74.51,3.05,12.61,6.12,25.2,9.22,37.8,4.1,16.65,8.52,33.85,19.16,47.3"/>
        <path class="cls-1" d="M191.51,146.1c-11.02,52.57.14,109.42,30.21,153.93"/>
        <path class="cls-1" d="M183.64,170.55c-1.2,1.02-1.79,2.56-2.3,4.05-7.94,23.22-6.32,48.93.7,72.45,7.02,23.52,19.17,45.17,32.2,65.97"/>
        <path class="cls-1" d="M184.08,177.6c-1.04-4.45-.51-9.25,1.49-13.36-7.28,44.01,1.51,90.49,24.34,128.81"/>
        <path class="cls-1" d="M180.83,175.76c-4.52,3.19-6.4,8.83-9.09,13.66-3.25,5.86-8.02,10.97-9.96,17.38-1.94,6.41.49,14.99,7.03,16.44"/>
        <path class="cls-1" d="M181.06,175.95c-13.4,15.1-16.35,38.61-7.08,56.55"/>
        <path class="cls-1" d="M179.55,179.13c-8.68,17.24-8.6,38.62.22,55.8"/>
        <path class="cls-1" d="M176.29,229.77c-.67,22.19,7.39,44.54,22.08,61.18"/>
        <path class="cls-1" d="M173.05,231.47c-1.85,5.74-3.47,11.69-3.06,17.7.42,6.01,3.22,12.16,8.44,15.18"/>
        <path class="cls-1" d="M171.58,231.34c-9.01,12.01-5.96,31.25,6.32,39.89"/>
        <path class="cls-1" d="M168.73,234.77c-3.15.68-4.77,4.2-5.38,7.37-2,10.45,2.3,21.85,10.69,28.38"/>
        <path class="cls-1" d="M175.93,228.82c-7.05,11.8-3.69,28.7,7.34,36.9"/>
        <path class="cls-1" d="M183.49,168.63c-1.98,15.8-2.46,31.79-1.43,47.68.32,4.96.79,9.91,1.59,14.81,3.82,23.5,15.46,45.65,32.62,62.15"/>
        <path class="cls-1" d="M192.3,152.46c-2.04,22.37-1.57,44.96,1.38,67.23,2.83,21.34,8.64,43.62,24.16,58.53"/>
        <path class="cls-1" d="M191.6,138.2c1.33,9.99,2.67,19.98,4,29.96,3.16,23.61,6.32,47.27,11.73,70.47,3.27,14.03,7.49,28.16,15.8,39.93,3.58,5.07,7.88,9.63,12.72,13.5"/>
        <path class="cls-1" d="M135.16,12.14c6.91,7.65,14.34,14.83,22.21,21.48,11.8,9.96,24.76,18.89,34.1,31.19,4.94,6.5,8.75,13.8,11.93,21.33,25.22,59.64,10.96,130.54,37.16,189.76,2.09,4.72,5.38,9.99,10.55,10.17"/>
        <path class="cls-1" d="M134.12,6.82c-.81.78.57,1.91,1.66,2.18,17.05,4.3,32.99,12.94,45.91,24.87,4.25,3.93,8.23,8.25,13.11,11.37,9.68,6.19,16.39,16.11,21.55,26.38,20.55,40.9,19.9,88.8,29.91,133.47,2.41,10.77,5.47,21.42,7.08,32.34,1.12,7.59,1.53,15.26,2.54,22.86,2.07,15.59,6.67,30.85,13.56,44.99"/>
        <path class="cls-1" d="M135.74-.34c12.75,2.65,25.68,5.36,37.24,11.37,25.49,13.26,40.56,40.56,49.58,67.84"/>
        <path class="cls-1" d="M133.41-.43c38.89,6.93,73.57,34.16,89.54,70.29"/>
        <path class="cls-1" d="M137.04,11.07c24.18,8.48,41.93,28.83,58.51,48.37,5.07,5.97,10.22,12.08,13.1,19.36.73,1.85,1.31,3.76,1.89,5.67,3.92,12.98,7.84,25.96,11.76,38.95,2.98,9.88,5.99,19.86,6.77,30.16.85,11.17-.94,22.43.09,33.58.88,9.5,3.78,18.68,5.79,28.01,5.15,23.88,5.21,50.62,20.99,69.27"/>
        <path class="cls-1" d="M216.95,66.32c3.67,6.24,2.74,14.01,2.31,21.24-1.08,18.27,1.84,36.52,4.75,54.59.98,6.12,1.97,12.24,2.95,18.35,4.96,30.84,11.67,61.41,20.51,91.38,3.59,12.16,7.57,24.82,5.3,37.29"/>
        <path class="cls-1" d="M230.77,111.14c-3.27,23.56-6.55,47.42-3.72,71.04.86,7.16,2.27,14.24,3.56,21.34,1.39,7.63,2.63,15.3,3.31,23.03.68,7.78.8,15.63,2.18,23.32,2.39,13.34,8.5,25.68,14.53,37.82"/>
        <path class="cls-1" d="M236.19,131.26c-5.65,17.71-3.08,36.91.48,55.15,7.01,35.9,17.65,71.1,31.7,104.87"/>
      </g>
    </g>
  </g>
  <g id="nose">
    <path class="cls-9" d="M121.14,132.1c2.75-3.54,4.72-9.37,4.81-9.65l-.95-.32c-.02.07-2.24,6.63-5.09,9.89.43-.02.84.01,1.23.07Z"/>
    <path d="M125.3,144.03l-.2-.2c.06.07.13.14.2.21,0,0,0,0,0,0Z"/>
    <path class="cls-9" d="M126.56,143.89l-1.8-1.84-.35.3c-.44.37-.87.66-1.3.91.42-.04.87-.1,1.35-.22.14.19.35.47.64.78l.2.2s0,0,0,0c.21.22.44.45.71.69.12-.17.25-.32.36-.51l.19-.33Z"/>
    <path class="cls-9" d="M119.18,132.77s-.19.16-.45.44c.57-.15,1.11-.2,1.61-.19.27-.29.54-.6.8-.93-.39-.06-.8-.09-1.23-.07-.24.27-.48.53-.73.75Z"/>
    <path class="cls-7" d="M126.01,144.73c.2.21.88.33,1.15.57-1.59,2.18-4.31,2.77-5.33,2.77-.29,0-.47-.02-.51-.03,0,0-6.94-.03-8.02-5.77-1.16-6.11,3.59-8.15,3.63-8.17,1.36-.82,2.61-1.15,3.73-1.2-.24.27-.48.53-.73.75,0,.01-.2.16-.45.44-.66.17-1.36.46-2.1.9-.23.11-4.1,1.8-3.1,7.09.47,2.46,2.17,3.7,3.8,4.33,1.62.63,3.17.64,3.3.64.19.02,2.95.12,4.63-2.32Z"/>
    <line class="cls-7" x1="119.91" y1="132.02" x2="118.73" y2="133.21"/>
    <line class="cls-9" x1="125.3" y1="144.03" x2="126.01" y2="144.72"/>
    <path class="cls-9" d="M152.91,136.09c-2.71-3.69-6.96-10.04-6.8-11.38l-.99-.12c-.25,2.13,5.78,10.45,6.95,12.02.77,1.51.93,2.85.46,3.97-.76,1.83-2.95,2.55-3.01,2.57-3.59,1.48-7.05.71-7.08.7l-.22-.05-.18.13c-4.07,2.95-6.2,3.09-8.04,2.98-6.15-.38-8.85-4.66-8.88-4.7l-.19-.32-.36.09c-4.39,1.13-5.62-1.11-5.67-1.21-1.02-2.04.22-5.49.59-6.69-.02,0-1.18.42-1.2.43-.46.22.06-.29-.25.1-.13,1.22-1.85,5.09-.04,6.61.09.08,1.26,2.4,5.12,2.03.43-.25.86-.55,1.3-.91l.35-.3,1.8,1.84-.19.33c-.11.19-.24.34-.36.51,1.52,1.36,4.09,2.96,7.92,3.19.26.02.52.03.77.03,2.15,0,4.33-.63,7.73-3.06.87.16,4.07.6,7.42-.78.11-.03,2.64-.86,3.59-3.12.59-1.41.42-3.03-.54-4.88Z"/>
  </g>
  <g id="glasses">
    <g>
      <path class="cls-7" d="M200.68,102.41v1.27c0,.67-.3,1.3-.81,1.71-.67.56-1.44.84-2.22.84-.17,0-.34,0-.51-.04.06-.33.12-.66.17-.99.67.11,1.32-.08,1.93-.58.28-.23.44-.57.44-.94v-1.27c0-.45-.31-.86-.74-.97-.69-.18-1.05-.12-1.2-.07.02-.35.04-.69.05-1.03.34-.04.79-.03,1.4.13.88.23,1.49,1.03,1.49,1.94Z"/>
      <path class="cls-7" d="M199.68,102.41v1.27c0,.37-.16.71-.44.94-.61.5-1.26.69-1.93.58.22-1.32.35-2.59.43-3.82h0c.15-.06.51-.12,1.2.06.43.11.74.52.74.97Z"/>
      <path class="cls-7" d="M196.54,88.96c.56,2.09,1.42,6.26,1.25,11.38-.53.07-.77.29-.84.36h-.18c.23-5.18-.64-9.39-1.19-11.48-.05-.2-.18-.36-.36-.46-.19-.1-.42-.12-.63-.04-4.36,1.5-19.39,2.14-27.96,2.39-3.6.11-7.03.85-10.19,2.19-8.88,3.8-11.7,9.65-12.17,10.76l-.24-.12.05-.09-.49-.2c-.07-.03-.13-.06-.2-.08.58-1.4,3.53-7.28,12.65-11.19,3.28-1.39,6.83-2.16,10.56-2.27,6.86-.2,23.27-.83,27.67-2.34.47-.16.99-.12,1.42.11s.73.61.85,1.08Z"/>
      <path class="cls-7" d="M197.79,100.34c-.01.34-.03.68-.05,1.03h0c-.06.02-.09.04-.09.04l-.7-.71c.07-.07.31-.29.84-.36Z"/>
      <path class="cls-7" d="M197.65,101.41s.03-.02.09-.03c-.08,1.23-.21,2.5-.43,3.82-.13-.01-.27-.05-.41-.09l-.32.95c.19.06.38.11.56.13-.32,1.65-.77,3.36-1.39,5.08-.01.04-.51,1.81-1.66,4.39-4.89,10.98-15.83,17.76-27.58,17.76-2.35,0-4.73-.28-7.1-.84-7.21-1.71-12.05-4.55-14.36-8.45-4.29-7.21-3.56-14-2.66-17.6l.28.17,1.36-2.76.24.12c-.05.11-.08.17-.08.18-.06.15-4.26,9.33,1.72,19.38,2.17,3.65,6.79,6.34,13.73,7.99,13.76,3.26,27.86-3.62,33.54-16.35,1.11-2.52,1.61-4.27,1.61-4.29,1.29-3.6,1.84-7.12,1.98-10.28h.18s.7.72.7.72Z"/>
      <path class="cls-7" d="M196.9,105.11c.14.04.28.08.41.09-.05.33-.11.66-.17.99-.18-.02-.37-.07-.56-.13l.32-.95Z"/>
      <path class="cls-7" d="M195.58,89.22c.55,2.09,1.42,6.3,1.19,11.47-.14,3.16-.69,6.68-1.98,10.28,0,.02-.5,1.77-1.61,4.29-5.68,12.73-19.78,19.61-33.54,16.35-6.94-1.65-11.56-4.34-13.73-7.99-5.98-10.05-1.78-19.23-1.72-19.38,0-.01.03-.07.08-.18.47-1.11,3.29-6.96,12.17-10.76,3.16-1.34,6.59-2.08,10.19-2.19,8.57-.25,23.6-.89,27.96-2.39.21-.08.44-.06.63.04.18.1.31.26.36.46ZM174.13,128.56c21.52-6.8,19.68-37.03,19.66-37.33l-.04-.51-14.85,1.25c-.07,0-6.68.14-16.65,1.11-10.21.99-15.53,9.66-15.77,10.07-2.81,5.97-2.32,10.85-1.42,13.89.98,3.31,2.61,5.19,2.66,5.24,4.52,5.97,11.7,7.37,17.43,7.37,4.99,0,8.89-1.06,8.98-1.09Z"/>
      <path class="cls-7" d="M193.79,91.23c.02.3,1.86,30.53-19.66,37.33-.09.03-3.99,1.09-8.98,1.09-5.73,0-12.91-1.4-17.43-7.37-.05-.05-1.68-1.93-2.66-5.24-.9-3.04-1.39-7.92,1.42-13.89.24-.41,5.56-9.08,15.77-10.07,9.97-.97,16.58-1.11,16.65-1.11l14.85-1.25.04.51ZM173.84,127.61c19.25-6.09,19.11-31.85,18.97-35.8l-13.86,1.15c-.1.01-6.67.15-16.61,1.11-9.69.94-14.93,9.47-14.98,9.55-5.07,10.79.88,17.74,1.13,18.03,8.06,10.64,25.18,6,25.35,5.96Z"/>
      <path class="cls-7" d="M144.08,103.85l-.05.09-1.36,2.76-.28-.17c.41-1.66.86-2.63.88-2.66.01-.03.05-.13.12-.3.07.02.13.05.2.08l.49.2Z"/>
      <path class="cls-7" d="M143.39,103.57c-.07.17-.11.27-.12.3-.02.03-.47,1-.88,2.66l-.18-.11c-.07-.04-6.89-4.08-14.62.21h-.02c-.41-1.83-.89-2.92-.9-2.94s-.03-.07-.06-.16c1.62-.61,9.06-3.07,16.78.04ZM142.25,105.31l.46-.94c-6.94-2.64-13.75-.61-15.56.03l.45,1.09c6.83-3.52,12.93-1.03,14.65-.18Z"/>
      <path class="cls-7" d="M142.71,104.37l-.46.94c-1.72-.85-7.82-3.34-14.65.18l-.45-1.09c1.81-.64,8.62-2.67,15.56-.03Z"/>
      <path class="cls-7" d="M110.15,132.15c-2.25.5-4.51.74-6.73.74-11.89,0-22.93-6.93-27.74-18.09-1.11-2.6-1.59-4.38-1.61-4.45-.71-2.06-1.18-4.09-1.48-6.05.24-.04.46-.11.64-.2l-.45-.9c-.09.05-.2.09-.33.12-.12-1.02-.21-2.01-.25-2.97.12.06.19.11.19.11l.55-.83h.25c.08,3.19.58,6.76,1.84,10.43.01.05.49,1.81,1.57,4.34,5.51,12.81,19.53,19.86,33.33,16.77,6.96-1.56,11.62-4.19,13.83-7.82,6.1-9.97,2.02-19.2,1.98-19.3,0,0,0-.01,0-.03l.16-.06,1.21,2.94.47-.26c.81,3.66,1.3,10.29-2.95,17.24-2.37,3.86-7.24,6.65-14.47,8.27Z"/>
      <path class="cls-7" d="M127.57,106.64l-.47.26-1.21-2.94-.05-.12.46-.19s.14-.06.31-.12c.03.09.05.14.06.16s.49,1.11.9,2.95Z"/>
      <path class="cls-7" d="M126.61,103.53c-.17.06-.28.11-.31.12l-.46.19.05.12-.16.06c-.18-.5-2.67-6.93-12.11-11.11-3.15-1.39-6.57-2.17-10.17-2.32-8.57-.36-23.58-1.19-27.93-2.74-.09-.04-.18-.05-.28-.05-.12,0-.24.03-.35.08-.18.1-.31.25-.36.45-.58,2.06-1.49,6.2-1.34,11.3h-.25s-.32-.21-.77-.4c-.08-5.03.82-9.1,1.39-11.17.13-.46.44-.84.87-1.06.44-.23.96-.26,1.43-.1,4.38,1.57,20.78,2.41,27.63,2.69,3.73.16,7.27.97,10.53,2.41,9.46,4.18,12.18,10.44,12.59,11.53Z"/>
      <path class="cls-7" d="M125.74,104.05c.04.1,4.12,9.33-1.98,19.3-2.21,3.63-6.87,6.26-13.83,7.82-13.8,3.09-27.82-3.96-33.33-16.77-1.08-2.53-1.56-4.29-1.57-4.34-1.26-3.67-1.76-7.24-1.84-10.43-.15-5.1.76-9.24,1.34-11.3.05-.2.18-.35.36-.45.11-.05.23-.08.35-.08.1,0,.19,0,.28.05,4.35,1.55,19.36,2.38,27.93,2.74,3.6.15,7.02.93,10.17,2.32,9.44,4.18,11.93,10.61,12.11,11.11,0,.02,0,.03,0,.03ZM124.32,116.85c.91-3.04,1.41-7.91-1.4-13.93-.22-.37-5.52-9.06-15.72-10.08-4.99-.49-9.13-.78-12.03-.94-2.91-.17-4.57-.21-4.59-.21l-14.88-1.28-.04.5c-.02.31-1.94,30.53,19.58,37.39.08.03,4.02,1.11,9.06,1.11,5.71,0,12.83-1.39,17.32-7.3.07-.08,1.71-1.95,2.7-5.26Z"/>
      <path class="cls-7" d="M122.92,102.92c2.81,6.02,2.31,10.89,1.4,13.93-.99,3.31-2.63,5.18-2.7,5.26-4.49,5.91-11.61,7.3-17.32,7.3-5.04,0-8.98-1.08-9.06-1.11-21.52-6.86-19.6-37.08-19.58-37.39l.04-.5,14.88,1.28s1.68.04,4.59.21c2.9.16,7.04.45,12.03.94,10.2,1.02,15.5,9.71,15.72,10.08ZM120.85,121.48c.28-.32,6.24-7.25,1.18-18.1-.02-.04-5.24-8.58-14.93-9.54-9.93-.99-16.51-1.15-16.58-1.15l-13.88-1.2c-.15,3.95-.36,29.72,18.89,35.86.15.04,17.26,4.72,25.32-5.87Z"/>
      <path class="cls-7" d="M72.78,103.2l.45.9c-.18.09-.4.16-.64.2-.05-.33-.1-.66-.14-.98.13-.03.24-.07.33-.12Z"/>
      <path class="cls-7" d="M72.94,99.63l-.55.83s-.07-.05-.19-.11c-.02-.38-.03-.75-.03-1.12.45.19.74.38.77.4Z"/>
      <path class="cls-7" d="M72.45,103.32c.04.32.09.65.14.98-.35.08-.76.11-1.18.11-.64,0-1.32-.07-1.91-.15-.65-.09-1.13-.65-1.13-1.31v-2.61c0-.7.47-1.31,1.15-1.47.98-.23,1.98.07,2.65.36,0,.37,0,.74.03,1.12-.43-.23-1.5-.75-2.44-.51-.23.05-.39.26-.39.5v2.61c0,.16.11.3.27.32,1.21.16,2.22.18,2.81.05Z"/>
      <path class="cls-7" d="M72.2,100.35c.04.96.13,1.95.25,2.97-.59.13-1.6.11-2.81-.05-.16-.02-.27-.16-.27-.32v-2.61c0-.24.16-.45.39-.5.94-.24,2.01.28,2.44.51Z"/>
    </g>
  </g>
  <g id="lower_lip" data-name="lower lip">
    <g>
      <path class="cls-14" d="M144.76,163.06l13.67.12c-3.53,3.77-11.81,10.61-24.7,9.82-.05,0-4.82.11-11.94-2.59-4.95-1.87-8.45-5.86-10.12-8.13l13.01.24c.86.02,1.71.15,2.54.4l5.99,1.79c1.25.31,2.57.3,3.83-.02l4.21-1.14c1.13-.35,2.32-.51,3.51-.49Z"/>
      <path class="cls-4" d="M133.73,173c12.89.79,21.17-6.05,24.7-9.82l-13.67-.12c-1.19-.02-2.38.14-3.51.49l-4.21,1.14c-1.26.32-2.58.33-3.83.02l-5.99-1.79c-.83-.25-1.68-.38-2.54-.4l-13.01-.24c1.67,2.27,5.17,6.26,10.12,8.13,7.12,2.7,11.89,2.59,11.94,2.59ZM140.97,162.59c1.22-.37,2.51-.55,3.8-.53l15.87.14-.71.82c-2.97,3.41-11.06,11.05-24.13,11.05-.68,0-1.38-.02-2.09-.07-.16.01-4.96.12-12.28-2.65-5.87-2.23-9.76-7.25-11.16-9.31l-.54-.8,14.97.28c.95.02,1.89.17,2.8.44l5.97,1.78c1.07.27,2.23.26,3.32-.02l4.18-1.13Z"/>
    </g>
  </g>
  <g id="upper_lip" data-name="upper lip">
    <g>
      <path class="cls-14" d="M143.17,162.55c-.99.03-1.98.17-2.94.42l-2.09.54c-1.98.52-4.05.42-5.97-.29l-2.95-1.08c-.94-.35-1.92-.54-2.92-.58l-15-.53c1.29-.08,3.42-.37,5.49-1.32,3.69-1.58,7.83-3.24,10.53-3.52.03,0,3.95-.41,6.58,1.67l.23.18.26-.11c.11-.04,10.38-4,17.3,1.06,3.16,2.31,6.2,2.91,7.81,3.07-.04.01-.08.01-.12.01l-16.21.48Z"/>
      <path class="cls-4" d="M151.69,158.99c-6.92-5.06-17.19-1.1-17.3-1.06l-.26.11-.23-.18c-2.63-2.08-6.55-1.67-6.58-1.67-2.7.28-6.84,1.94-10.53,3.52-2.07.95-4.2,1.24-5.49,1.32l15,.53c1,.04,1.98.23,2.92.58l2.95,1.08c1.92.71,3.99.81,5.97.29l2.09-.54c.96-.25,1.95-.39,2.94-.42l16.21-.48s.08,0,.12-.01c-1.61-.16-4.65-.76-7.81-3.07ZM160.64,161.1l1.03-.05-.59.84s-.15.21-.45.58-.75.59-1.22.6l-16.21.48c-.91.03-1.83.16-2.72.39l-2.09.54c-.91.24-1.85.36-2.78.36-1.28,0-2.56-.23-3.79-.68l-2.94-1.08c-.84-.31-1.72-.48-2.62-.52l-16.02-.56-.14-.22c-.3-.44-.49-1.04-.5-1.06l-.22-.69.72.03s3.26.12,6.29-1.26c3.77-1.62,7.99-3.31,10.82-3.6.16-.02,4.14-.45,7.08,1.7,1.74-.63,11.18-3.69,17.99,1.29,4.23,3.08,8.31,2.91,8.36,2.91Z"/>
    </g>
  </g>
</svg>